<?xml version="1.0" encoding="utf-8"?>
<!-- Generator: Adobe Illustrator 16.0.0, SVG Export Plug-In . SVG Version: 6.00 Build 0)  -->
<!DOCTYPE svg PUBLIC "-//W3C//DTD SVG 1.1//EN" "http://www.w3.org/Graphics/SVG/1.1/DTD/svg11.dtd">
<svg version="1.1" id="Capa_1" xmlns="http://www.w3.org/2000/svg" xmlns:xlink="http://www.w3.org/1999/xlink" x="0px" y="0px"
	 width="400px" height="400px" viewBox="0 0 400 400" enable-background="new 0 0 400 400" xml:space="preserve">
<path fill="#30394F" d="M224.806,4.093h2.255c6.449,6.659,13.96,12.134,22.555,16.426l-1.937,6.436c1.283,0,2.689,2.59,4.181,7.745
	l-2.244,19.335c2.997,1.061,4.501,2.146,4.501,3.207c-3.009,4.735-4.501,12.355-4.501,22.862v6.438l1.282,6.782l-1.282,0.962v0.961
	l2.244,9.989l-8.693,65.061c7.288-1.528,18.905-2.269,34.788-2.269h5.462l73.78,0.961c13.08,0,21.355,10.21,24.784,30.607v10.949
	c0,11.395-10.851,17.066-32.53,17.066c-44.873,0-82.446,2.59-112.733,7.719v0.988c-5.143,65.701-12.012,107.035-20.605,124.005
	l-11.925,29.298l-6.757-1.282l-23.824,5.476c-3.873-2.787-14.711-6.438-32.531-10.949v-1.949
	c13.737-63.754,20.618-106.174,20.618-127.21l-105.334,9.988c-10.951,0-18.152-5.154-21.58-15.464v-0.962
	c0-2.368,1.072-4.834,3.23-7.398v-1.309l-5.475,1.309c-7.313-4.07-10.951-7.424-10.951-9.988l3.54-7.424h-5.487l-2.245-2.245v-3.23
	l17.387-7.72c14.611-13.736,38.868-20.618,72.804-20.618c39.719-2.788,59.573-6.758,59.573-11.913
	c9.015-95.544,17.387-143.315,25.12-143.315c1.283,0,2.688,2.565,4.192,7.719c6.856,0,11.912-7.941,15.143-23.824l-1.937-8.707
	C212.893,5.598,217.937,4.093,224.806,4.093z"/>
</svg>
