<svg xmlns="http://www.w3.org/2000/svg" width="96" height="86" viewBox="0 0 96 86">
    <g fill="none" fill-rule="nonzero">
        <path fill="#FFF" d="M17.001 16.668c1.546.443 2.879 1.036 3.999 1.78l-2.87 4.858a19.47 19.47 0 0 0-3.57-1.674c-1.322-.472-2.421-.709-3.296-.71-.59 0-1.053.111-1.388.333-.329.21-.52.578-.503.966 0 .543.284.966.854 1.267.57.302 1.464.634 2.685.995 1.136.34 2.252.743 3.342 1.207a6.007 6.007 0 0 1 2.259 1.766c.64.794.96 1.835.96 3.123 0 1.609-.427 2.971-1.282 4.087-.855 1.117-2 1.951-3.434 2.504-1.434.553-3.026.83-4.776.83a16.666 16.666 0 0 1-5.433-.92C2.757 36.465 1.24 35.625 0 34.56l2.9-4.798c.976.926 2.207 1.71 3.692 2.353 1.485.643 2.788.965 3.907.966.733 0 1.307-.14 1.723-.422a1.37 1.37 0 0 0 .625-1.207c0-.542-.285-.96-.854-1.252-.57-.292-1.475-.608-2.716-.95a26.761 26.761 0 0 1-3.324-1.146 6.146 6.146 0 0 1-2.275-1.724c-.641-.764-.962-1.77-.962-3.017 0-1.488.402-2.786 1.207-3.893.804-1.107 1.928-1.962 3.372-2.565S10.408 16 12.301 16c1.59.002 3.173.227 4.7.668zM22.465 36.473C21.489 35.455 21 34.133 21 32.508a7.427 7.427 0 0 1 .148-1.574L23.043 21h5.977l-1.716 9.009a3.444 3.444 0 0 0-.088.746c0 .638.173 1.142.518 1.512.345.37.814.555 1.406.555.77 0 1.46-.324 2.072-.972.611-.648 1.016-1.477 1.213-2.488l1.598-8.36H40l-3.196 16.783h-5.978l.39-2.16C29.93 37.208 28.31 38 26.356 38c-1.618 0-2.915-.509-3.891-1.527zM67.47 22.54C68.49 23.57 69 24.896 69 26.521a8.959 8.959 0 0 1-.153 1.543L66.857 38h-6.182l1.775-9.008c.056-.245.086-.495.091-.747 0-.637-.178-1.14-.535-1.511-.358-.37-.842-.556-1.454-.555-.796 0-1.51.324-2.142.972-.633.647-1.041 1.477-1.225 2.488l-1.652 8.36h-6.18l1.775-9.008c.056-.245.086-.496.09-.747 0-.637-.178-1.14-.535-1.511-.357-.371-.841-.556-1.453-.555-.776 0-1.485.324-2.127.971a4.777 4.777 0 0 0-1.27 2.488l-1.652 8.36H38l3.305-16.782h6.181l-.397 2.16C48.415 21.792 50.088 21 52.107 21c1.306 0 2.423.324 3.35.972a5.064 5.064 0 0 1 1.944 2.637c1.673-2.405 3.682-3.608 6.029-3.608 1.672 0 3.019.513 4.04 1.54zM47.998 41.285a9.31 9.31 0 0 1 3.684 3.551c.878 1.511 1.317 3.224 1.317 5.138a11.499 11.499 0 0 1-1.677 6.105 12.024 12.024 0 0 1-4.571 4.337C44.824 61.472 42.703 62 40.387 62c-2.017 0-3.814-.433-5.391-1.3a9.37 9.37 0 0 1-3.678-3.582c-.878-1.521-1.317-3.25-1.317-5.184a11.413 11.413 0 0 1 1.677-6.094 11.834 11.834 0 0 1 4.566-4.284C38.171 40.52 40.292 40 42.61 40c2.016 0 3.812.428 5.39 1.285zm-8.64 4.775a6.174 6.174 0 0 0-2.14 2.282 6.41 6.41 0 0 0-.81 3.17 5.76 5.76 0 0 0 .615 2.68 4.902 4.902 0 0 0 1.662 1.89 4.08 4.08 0 0 0 2.305.694c.991.003 1.96-.292 2.785-.845a6.045 6.045 0 0 0 2.053-2.316 6.86 6.86 0 0 0 .764-3.219 5.974 5.974 0 0 0-.566-2.629 4.575 4.575 0 0 0-1.591-1.862 4.008 4.008 0 0 0-2.273-.676 5.211 5.211 0 0 0-2.803.83z"/>
        <path fill="#FFF" d="M62.557 44.343a2.173 2.173 0 0 0-.834 1.332l-.09.52H65l-.759 3.952h-3.399L58.477 62h-6.1l2.366-11.853H49l4.604-3.951h1.894l.367-1.776c.344-1.734 1.163-3.071 2.459-4.011 1.295-.94 2.882-1.41 4.76-1.409a11.082 11.082 0 0 1 3.916.704l-1.487 4.445a5.783 5.783 0 0 0-.734-.23 2.932 2.932 0 0 0-.668-.107 2.463 2.463 0 0 0-1.554.53zM45.51 76.984c-.37 1.834-1.087 3.424-2.153 4.77a10.718 10.718 0 0 1-4.029 3.137c-1.62.74-3.443 1.109-5.473 1.109-1.783 0-3.346-.286-4.689-.858-1.343-.571-2.373-1.39-3.09-2.454C25.36 81.623 25 80.37 25 78.932a8.771 8.771 0 0 1 .216-1.953L27.706 65h6.396l-2.49 11.984c-.06.302-.092.61-.093.917 0 .927.282 1.652.846 2.174.564.523 1.317.783 2.26.78a4.27 4.27 0 0 0 2.86-1.05c.82-.7 1.353-1.642 1.599-2.825l2.52-11.976H48l-2.49 11.98zM48.054 85.165A11.925 11.925 0 0 1 44 82.808l2.567-3.556a13.694 13.694 0 0 0 3.052 1.886c1.054.467 2.02.7 2.896.699.48 0 .85-.087 1.111-.259a.812.812 0 0 0 .392-.715c0-.245-.178-.463-.533-.654a14.025 14.025 0 0 0-1.69-.714 27.49 27.49 0 0 1-2.615-1.125 5.581 5.581 0 0 1-1.8-1.472c-.522-.638-.783-1.424-.783-2.356a4.915 4.915 0 0 1 .877-2.881 5.73 5.73 0 0 1 2.458-1.962c1.054-.466 2.27-.699 3.647-.699a13.6 13.6 0 0 1 4.367.746A15.116 15.116 0 0 1 62 71.83l-2.755 3.498a17.684 17.684 0 0 0-2.99-1.595c-.97-.4-1.778-.6-2.426-.6a1.621 1.621 0 0 0-.939.258.77.77 0 0 0-.379.654c0 .264.183.502.548.715.568.303 1.159.562 1.768.775.9.333 1.778.718 2.63 1.155a6.003 6.003 0 0 1 1.82 1.495c.522.629.783 1.409.783 2.34a4.786 4.786 0 0 1-.893 2.86c-.595.83-1.43 1.475-2.505 1.93-1.074.457-2.311.685-3.71.685a14.575 14.575 0 0 1-4.898-.835z"/>
        <path fill="#04CCDE" d="M78.04 15H60.361C56.296 15 53 11.642 53 7.5 53 3.358 56.296 0 60.362 0H96"/>
        <path fill="#04BBCC" d="M96 0l-6.825 34.368c-.865 3.826-4.593 6.26-8.407 5.49-3.814-.771-6.325-4.468-5.662-8.335l3.386-17.043"/>
    </g>
</svg>
