<svg xmlns="http://www.w3.org/2000/svg" width="200" height="30" viewBox="0 0 200 30"><path d="M191.67 9.782c1.508-1.325 2.86-2.063 3.686-2.063 1.234 0 2.15 1.098 3.066 1.098.458 0 .803-.368.984-.73l.344.26c-1.03 1.43-1.88 2.71-2.587 3.866-.985-1.356-2.656-2.327-3.8-2.327-1.17 0-1.352.8-.894 1.465.867 1.17 2.95 2.393 4.51 3.638 1.304 1.023 2.082 2 2.082 3.447 0 1.847-2.196 3.763-3.777 6.367-1.557-.83-3.615-1.734-5.217-1.734-1.12 0-1.787.533-2.04 1.236l-.183-.1c.502-2.588 1.418-4.746 3.227-4.746 1.423 0 3.045 1.06 4.832 2.43.272.213.48.146.617-.115.255-.586.16-1.698-1.1-2.764-1.396-1.18-2.858-1.848-4.026-2.702-1.648-1.216-2.017-2.174-2.017-3.132.002-.95.644-1.95 2.293-3.394M148.86 7.595l2.36-4.324 2.102 1.6-3.752 3.313M152.8 18.79c0 2.127.503 2.876 1.464 2.876.527 0 .848-.277.848-.277l.185.485c-1.075.75-2.954 2.245-3.778 3.012-2.29-2.043-2.794-2.8-2.794-6.113v-6.12c0-1.06-.41-1.555-1.328-1.96v-.074c.918-.55 2.655-1.56 4.008-2.437 1.1 1.275 1.396 2.1 1.396 4.17M182.81 24.443c-.573.36-1.052.36-1.647.053-2.428-1.245-3.296-3.167-3.296-6.38v-5.86c0-.36.09-.597.41-.766l6.184-3.38c.273-.14.412-.096.55.118l2.952 4.815c.16.273.14.45-.113.626-2.04 1.503-4.9 3.44-6.206 4.264l-.065-.877c.846-.507 2.24-1.43 2.996-2.062.23-.19.273-.377.093-.655l-2.29-3.587c-.252-.404-.664-.185-.664.214v6.143c0 2.598.962 4.302 2.813 4.302 1.81 0 3.067-1.556 3.616-2.617l.068.02v1.417c-1.557 1.465-3.69 3.172-5.405 4.21M61.622 7.91c-1.28-1.793-3.823-4.285-6.295-4.285-1.626 0-2.405 1.015-2.405 1.85 0 1.126.94 1.885 3.39 3.46 4.853 3.122 8.63 5.28 8.63 9.426 0 4.325-4.646 5.872-6 9.116h-.09c-3.022-4.387-8.31-5.258-10.46-3.312l-.16-.117c.272-1.972 1.463-5.51 4.325-5.51 2.633 0 6.112 3.5 8.24 4.39.322.127.596.05.802-.2.274-.337.435-.866.435-1.706 0-5.832-12.087-7.497-12.087-12.166 0-1.097 1.007-3.07 2.426-4.81C54.206 1.775 56.082.768 58.12.768c3.158 0 4.716 2.357 6.044 2.357.548 0 .915-.294 1.26-.76l.32.364c-1.468 1.53-3.276 3.977-4.122 5.183M61.232 21.102c0-5.186-12.225-6.805-12.225-12.248l-.137.02c-.87 6.1 11.148 7.667 12.225 12.262M103.307 17.455c0 2.602.527 3.69 1.767 3.69.637 0 1.095-.41 1.095-.41l.185.474c-1.03.996-2.817 2.823-3.595 3.673-1.627-1.19-2.838-2.466-3.16-3.93l-.114-.353V8.456c0-1.604-.3-2.356-1.396-2.637v-.072c1.717-.958 3.5-2.073 5.126-3.148l.093.053M96.21 17.432c0 2.854.618 3.777 1.855 3.777 1.146 0 1.81-1.17 1.81-1.17l.273.68c-.982.896-3.55 3.33-4.37 4.167-2.61-1.762-3.412-3.174-3.412-6.496V8.458c0-1.605-.3-2.357-1.373-2.638v-.073c1.692-.958 3.502-2.072 5.104-3.147l.115.053M105.322 10.488l.824-1.685H89.503l.642 1.685M117.936 24.496c-2.428-1.245-3.295-3.167-3.295-6.38v-5.86c0-.36.093-.597.41-.765l6.206-3.38c.25-.14.41-.096.55.118l2.95 4.815c.16.273.114.45-.113.626-2.037 1.503-4.9 3.44-6.227 4.264l-.046-.877c.848-.507 2.243-1.43 2.998-2.062.206-.19.274-.377.094-.656l-2.29-3.587c-.23-.352-.663-.185-.663.213v6.144c0 2.6 1.028 4.375 2.905 4.375 1.786 0 3.272-1.73 3.87-2.8l.066.02v1.416c-1.603 1.472-4.027 3.282-5.747 4.323-.572.362-1.05.362-1.667.053M111.068 17.743c0 2.6.662 3.41 1.966 3.41.665 0 1.146-.42 1.146-.42l.184.476c-1.008.93-2.954 2.823-3.73 3.677-2.727-1.97-3.458-2.982-3.458-6.496V6.948c0-1.6-.3-2.36-1.373-2.63v-.08c1.693-.95 3.55-2.07 5.15-3.137l.116.044M85.384 14.423c-1.946 1.39-5.496 3.343-7.12 4.315-.25.14-.32.338-.32.652 0 2.383.686 4.25 2.312 5.074.504.258.94.243 1.372-.104l3.87-3.137-.252-.793c-.343.604-.938 1.118-1.692 1.118-1.236 0-1.785-1.46-1.785-3.567 0-.216.02-.335.18-.452.847-.625 2.54-1.682 3.502-2.183M88.862 18.133c0 1.55.093 2.165.48 2.79.252.43.64.658 1.03.658.46 0 .71-.28.71-.28l.206.48c-.894.684-2.77 2.296-3.642 3.105-1.554-1.422-2.38-2.348-2.607-3.97v-7.3c0-.645-.14-1.133-.62-1.517-.57-.47-1.672-1.192-2.335-1.53-.388-.2-.663 0-.663.42v2.568c0 .582-.183.958-.596 1.173l-2.447 1.244c-.163.088-.277.015-.277-.168v-3.553c0-.264.068-.427.297-.568l5.61-3.622c.227-.14.318-.14.548 0 1.1.69 2.953 2.03 4.03 2.878.204.156.273.37.273.6M71.487 24.443c-.596.36-1.074.36-1.67.053-2.428-1.245-3.297-3.167-3.297-6.38v-5.86c0-.36.09-.597.41-.766l6.205-3.38c.25-.14.41-.096.528.118l2.95 4.815c.184.273.137.45-.114.626-2.038 1.503-4.898 3.44-6.203 4.264l-.047-.877c.846-.507 2.244-1.43 2.977-2.062.23-.19.273-.377.093-.655l-2.29-3.587c-.25-.404-.664-.185-.664.214v6.143c0 2.598.984 4.302 2.84 4.302 1.785 0 3.04-1.556 3.592-2.617l.07.02v1.417c-1.556 1.465-3.686 3.172-5.38 4.21M37.45 24.496c-2.406-1.245-3.275-3.167-3.275-6.38v-5.86c0-.36.07-.597.41-.765l6.183-3.38c.252-.14.41-.096.55.118l2.95 4.815c.163.273.14.45-.112.626-2.038 1.503-4.898 3.44-6.23 4.264l-.043-.877c.848-.507 2.243-1.43 2.997-2.062.23-.19.277-.377.093-.656l-2.29-3.587c-.227-.352-.663-.185-.663.213v6.144c0 2.6 1.055 4.375 2.907 4.375 1.81 0 3.297-1.73 3.868-2.8l.07.02v1.416c-1.603 1.472-4.03 3.282-5.745 4.323-.573.362-1.055.362-1.67.053M24.444 18.59c0 2.446.367 3.13 1.673 4.25l-3.02 2.664c-1.97-1.852-2.52-2.812-2.542-6.304V9.95c0-1.598-.207-2.387-1.307-2.585v-.072c1.627-.995 3.48-2.29 5.084-3.494l.112.052v6.688c0 .352.23.53.618.3 1.1-.64 2.702-1.64 3.755-2.348.14-.096.252-.118.412-.036 1.9.892 2.678 2.343 2.678 3.728v7.233c0 3.5-.57 4.665-6.456 10.38l-.73-.502c2.814-1.878 3.11-4.227 3.11-8.225v-7.127c0-.855-.02-1.43-.204-1.952-.207-.565-.55-.97-1.144-.97-.71 0-1.558.76-2.04 1.338M.845 7.608c-.046-.713.16-1.44.685-2.01.618-.656 1.512-.95 2.977-.95 2.7 0 7.508 2.04 11.697 2.04 3.662 0 6.158-3.564 7.097-5.456L22.91.105l-.068.007c-.23 1.57-1.577 3.504-4.578 3.504-2.838 0-8.445-2.18-11.376-2.18C2.676 1.437.616 4.53.25 7.064l.55.57"/><path d="M14.578 6.002h.894v18.283h-.894zM8.032 6.18l.457.28c-1.946 1.43-3.48 4.145-3.48 7.51 0 5.606 3.25 10.252 8.517 10.252 3.02 0 4.92-1.555 5.858-3.078l.068.016.093 1.33c-1.467 1.335-4.646 3.67-8.606 3.67-6.182 0-9.913-4.234-9.913-9.803 0-5.196 3.617-8.423 7.005-10.176M13 5.966l-2.313 1.282c-1.44.79-1.738 1.634-1.738 3.232 0 1.43.388 3.867.388 5.803 0 1.99-.414 2.613-2.11 3.332l.3.527c1.1-.507 3.022-1.465 4.282-2.26 1.007-.648 1.19-1.01 1.19-2.048V9.552c0-2.04.046-2.672.436-3.216M167.475 19.128c0 2.003.64 2.712 1.438 2.712.48 0 .806-.273.806-.273l.18.483c-.894.604-2.884 2.093-3.755 2.837-2.312-2.195-2.746-2.96-2.746-6.275v-4.667c0-.856-.048-1.43-.23-1.952-.184-.565-.527-.973-1.123-.973-.708 0-1.533.715-2.015 1.3v6.81c0 2.003.663 2.712 1.465 2.712.48 0 .778-.274.778-.274l.184.484c-.892.604-2.862 2.092-3.756 2.838-2.288-2.197-2.726-2.925-2.726-6.24v-5.992c0-1.06-.433-1.556-1.35-1.96v-.078c.917-.55 2.678-1.56 4.005-2.437.6.796 1.01 1.673 1.216 2.557.065.31.343.37.614.22 1.168-.656 2.795-1.723 3.914-2.467.14-.096.253-.118.413-.036 1.26.597 2.018 1.45 2.404 2.34.138.302.39.348.664.186 1.215-.7 2.815-1.73 3.938-2.49.158-.104.253-.118.41-.036 2.13.98 2.682 2.143 2.682 4.77v5.902c0 2.002.663 2.71 1.463 2.71.48 0 .78-.273.78-.273l.184.484c-.894.605-2.862 2.093-3.754 2.84-2.29-2.198-2.725-2.963-2.725-6.276v-4.668c0-.856-.047-1.43-.23-1.952-.184-.565-.55-.973-1.144-.973-.687 0-1.51.716-1.99 1.3M128.738 7.608c-.047-.713.162-1.442.688-2.01.618-.656 1.512-.95 2.977-.95 2.7 0 7.508 2.04 11.7 2.04 3.66 0 6.157-3.564 7.093-5.456L150.81.105l-.07.007c-.206 1.57-1.578 3.504-4.578 3.504-2.84 0-8.447-2.18-11.377-2.18-4.21 0-6.25 3.094-6.64 5.627l.55.57"/><path d="M142.477 6.002h.89v18.283h-.89zM135.93 6.18l.457.28c-1.945 1.43-3.48 4.145-3.48 7.51 0 5.606 3.248 10.252 8.514 10.252 3.026 0 4.927-1.555 5.862-3.078l.07.016.088 1.33c-1.46 1.335-4.646 3.67-8.605 3.67-6.18 0-9.91-4.234-9.91-9.803-.002-5.196 3.616-8.423 7.005-10.176M140.918 5.966l-2.336 1.282c-1.44.79-1.738 1.634-1.738 3.232 0 1.43.39 3.867.39 5.803 0 1.99-.413 2.613-2.107 3.332l.3.527c1.12-.507 3.02-1.465 4.28-2.26 1.006-.648 1.19-1.01 1.19-2.048V9.552c0-2.04.047-2.672.437-3.216"/><path fill="#010101" d="M105.318 10.487l.825-1.684H89.507l.64 1.684z"/></svg>