<?xml version="1.0" encoding="utf-8"?>
<!-- Generator: Adobe Illustrator 16.0.0, SVG Export Plug-In . SVG Version: 6.00 Build 0)  -->
<!DOCTYPE svg PUBLIC "-//W3C//DTD SVG 1.1//EN" "http://www.w3.org/Graphics/SVG/1.1/DTD/svg11.dtd">
<svg version="1.1" id="Capa_1" xmlns="http://www.w3.org/2000/svg" xmlns:xlink="http://www.w3.org/1999/xlink" x="0px" y="0px"
	 width="900px" height="520px" viewBox="0 0 900 520" enable-background="new 0 0 900 520" xml:space="preserve">
<path fill="#ECECEC" d="M234.874,499.754l-9.77-2.619l-7.803-7.811l1.291-4.821l-1.209-4.515l1.317-4.922l-8.236-2.209l4.102-7.111
	l-2.007-3.479l3.401-3.404h-6.432l-3.283-5.692h9.336l-3.467-6.011h9.52l3.044-3.047v-5.319l-8.709-8.718l7.878,2.113h6.109
	l2.336-8.727v-8.901l2.844,4.931l3.221-12.03v-11.076l9.418-9.426h7.527l3.553-2.054v-4.044l1.844-6.891v-4.848l1.822-6.807
	l-1.43-5.341v-9.056l1.645,1.646l2.369-8.85l5.497-5.502l2.289-8.55l-4.316-7.482l-4.43-2.56l-7.513-7.521h-7.762l-3.451-1.994
	l-5.496,3.176l0.881-3.29l-0.722-2.696l-9.315-2.497l-2.813,1.626v-4.73h-5.563l-2.206,3.824l-3.511,0.941l3.156-5.472l4.899-4.903
	l-4.349-2.514v-8.915l-8.162-4.717l-5.522-3.191h-5.49l-4.939-4.944l-4.351-4.354h-4.329l3.321-3.323l-5.023-5.028h-4.729
	l-2.743,2.745l-5.902-3.41l-4.596,1.232l-1.947-3.375l-5.135-2.967v3.692l-2.273,1.313v6.638l-3.456-3.459l2.407-2.41l-2.17-3.764
	l3.652-2.11l-1.4-1.401l-11.004,6.359l-3.234,5.606l-3.062,3.064v3.036l-5.86-5.865l-3.493-0.937l-3.636,3.64l-4.103-1.101
	l-4.866-8.437l3.779-14.117l-2.486-4.31h-13.753l3.366-3.369l1.677-6.263l2.164-3.751l0.849-3.17l3.364-3.367l-0.615-2.297
	l-11.79,3.161l-1.176,4.396l-4.39,4.394h-8.201l-3.888-2.246l-2.391-8.932l3.146-11.752l4.804-4.81v-5.839l13.982-8.079h7.8
	l2.712,2.714l4.796-1.286l-1.128-4.214h9.508l4.501,2.602l2.7-2.703l2.782,4.823l-3.218,5.579l2.616,9.774l3.114-0.836l1.581-5.905
	l1.753-6.548l-1.752-6.545l7.515-7.521l6.053-6.06h3.375l7.98-4.611l3.046-11.379l2.519-4.367v5.94l8.737-8.745l0.681-2.543
	l11.89-3.189l-2.357-1.362l6.103-6.108l18.093-4.853l2.196,1.27l-9.857,2.643l0.739,2.762l6.679-3.859l9.374-2.515l-2.084-2.086
	h-5.483v-7.385l5.767-1.547l-1.733-1.735h-5.926l-13.719,7.928l7.856-7.864l11.852-3.179h11.034l8.629-4.986c0,0,7.46-1.715,5.746,0
	s-12.874,12.885-12.874,12.885h9.469l-4.72,2.728l7.2-1.931l-1.307,2.266l2.982-0.8l2.297-8.581h-7.209l6.863-6.869l2.871-4.977
	l-2.766-4.795h-5.455l-1.526-5.702l4.205-1.127V77.948l-6.635,6.642l-6.62-1.776l6.584-6.59l-4.708-4.712h-9.079l-5.022,8.707
	l-7.115,4.112l0.917,3.428l-4.432,4.437l-10.026,2.689l-6.439,11.164l-3.934,2.272l-1.791-6.69l7.675-7.682h-7.663l-4.966-4.97
	l-4.039-1.084l4.175-4.178l-3.211-0.861l4.958-4.963l7.778-4.495l18.566-4.979l15.636-9.036l5.737,1.539l6.141-3.549l6.833-3.948
	l-3.372-1.948l-8.42,4.866l-7.579,2.033l2.879-2.882l8.133-8.141h-6.882l-6.146,3.552l0.938,1.626l-4.191,2.423L212.07,58.14
	l-9.004-2.415l-7.732,2.073l-3.637-2.101l-7.72,2.07l5.343-5.348l-8.144-2.184h-11.368l-14.634,3.924l-3.687-3.69L139.1,47.148
	h-9.013l-22.628,6.068l-6.284,1.686l-5.757,5.762H83.558l-7.051,1.891l1.011,1.754h-5.309l7.792,2.09l-4.923,2.845H64.644
	l-8.615,2.311l-12.804,7.399l4.676,1.254l-8.095,4.677l11.229-3.011l-12.542,5.945L27.5,92.07l31.823-8.535l2.425-2.427
	l17.565-4.711l-9.011,5.208l9.821-2.634l4.689-2.709l1.759,3.049h6.823l-4.382,7.597l10.064-5.816l-3.519,6.101l-10.46,10.47
	l-1.465,5.472l-3.533,3.536l3.484,6.04l-7.614,7.622l-0.919-3.434L63.2,128.756l-16.455,16.472l-2.848,10.635v9.172l4.321,4.324
	l-2.044,7.635v6.595l1.836,3.184l-4.847,4.851l4.457,4.461v6.815l3.308,5.735v-4.978v-16.282l-3.189-5.529l3.602-6.244l4.734,2.735
	l-2.368,8.845l4.297,7.45l-2.126,3.687l3.247,5.628l2.295,8.574l-1.802,6.733l4.924,8.535l17.267,9.979l4.108-4.11l3.836,2.217
	l6.534,6.539l6.907,3.992h5.333l5.177,8.976l-1.818,3.152l7.118,4.114l0.86,3.212l5.563,1.491l1.356,2.352l2.638-1.524l-0.876-3.273
	l3.684-2.129l3.067,3.069l2.096,7.83v9.875l-5.353,5.358l-3.745,6.493l-4.102,7.111l1.502,5.61l3.336,0.896l-6.041,6.046
	l2.256,8.427l4.701,2.717l6.683,11.585l6.711,11.636l1.092,4.078l8.575,8.582l11.838,6.841l2.972,11.101l5.575,20.824v15.978
	l5.117,8.871v16.498l6.643,11.516l5.87,5.876l5.33,9.239v7.825l12.265,12.276l6.62,6.626h4.51l4.932,4.938L234.874,499.754
	L234.874,499.754z M236.118,500.512c0,0.27-0.218,0.488-0.488,0.488s-0.488-0.219-0.488-0.488s0.219-0.489,0.488-0.489
	S236.118,500.242,236.118,500.512L236.118,500.512z M81.856,53.086c-0.081,0.025-0.164,0.046-0.244,0.071
	c-3.688,1.151-7.346,2.326-10.98,3.521s-7.238,2.416-10.817,3.653c-1.12,0.387-2.219,0.789-3.334,1.18l2.257,1.302l-2.633,4.569
	l12.454-3.337l10.471-6.055L81.856,53.086L81.856,53.086z M75.992,108.24l3.656,2.112v6.596l-4.336-2.506L75.992,108.24
	L75.992,108.24z M76.102,108.24c0,0.27-0.219,0.488-0.488,0.488s-0.488-0.218-0.488-0.488c0-0.27,0.218-0.489,0.488-0.489
	S76.102,107.97,76.102,108.24L76.102,108.24L76.102,108.24z M126.305,209.716l7.368-1.977l5.688,1.525l8.868,5.125l3.349,0.897
	l3.495,3.498l-4.692,2.711l-5.369-1.439l2.054-2.056l-4.656-1.249l0.779-2.908h-4.779l-5.431-3.139l-4.335,1.163l-3.476,2.009
	L126.305,209.716L126.305,209.716z M158.459,219.181l4.104,2.372l3.444-0.924l7.279,4.206l-2.319,2.321l-3.237-1.87h-4.353
	l-1.08,4.032l-3.093-1.788h-6.042l0.812-3.033h5.997L158.459,219.181L158.459,219.181z M178.13,225.618l1.361,2.36h-5.144
	l0.64-2.392L178.13,225.618L178.13,225.618z M142.949,224.86l4.268,2.467l-3.864,1.036l-3.432-1.983L142.949,224.86L142.949,224.86z
	 M217.851,69.618l7.755-7.762l4.049,7.019h-3.859L217.851,69.618L217.851,69.618z M235.252,65.074l7.626-2.045l11.439-3.068
	l3.801-3.805v-6.985l-6.984,1.874l-7.427-1.992l4.414-4.418l12.33-3.307l4.941-1.325l-1.463,5.464l5.924-1.589l2.081,7.771
	l-4.169,2.409l5.702,5.708l-8.664,5.007l-1.567-5.856l-4.75,2.745l1.391,5.194l-4.801,4.807l-3.745-3.749v6.248l-6.647-3.841v-4.867
	L235.252,65.074L235.252,65.074z M192.884,44.627l17.207-4.615h8.895l-2.495,4.325l2.652,1.532l7.524-4.349l2.588,1.496
	l-10.157,5.868v2.179l-10.107,2.711l-2.031-2.033l-13.273,3.56l-1.421-5.309h9.318l1.416-5.29l-12.905,3.461L192.884,44.627
	L192.884,44.627z M225.417,34.404l13.979-3.75l-1.364,5.096l8.615-2.311l-3.341,3.345l-15.561,4.173l2.758-4.782L225.417,34.404
	L225.417,34.404z M271.567,33.268h9.458l1.878-3.255l6.429-1.724l3.97-2.294l-14.065,3.772l9.759-5.64h17.752L315.62,19l6.542,1.755
	h5.014l-9.918,5.731h-12.023l-17.035,4.569l-3.937,3.941L271.567,33.268L271.567,33.268z M277.242,36.297h-9.836v-3.029h-5.674
	l-0.996,3.723l-4.847,2.8h10.382L277.242,36.297L277.242,36.297z M230.712,42.734l12.215-3.275v2.897h-4.649l-3.972,3.976h-4.35
	L230.712,42.734L230.712,42.734z M299.561,29.86h12.105l12.595-7.278h16.912l6.452-1.731h13.219l-1.002,3.744l9.276-2.488
	l0.452,1.688l-8.229,4.755l-6.009,6.015v6.275l-3.046,1.76h-9.978l7.13,4.12l-0.753,2.814h-4.107l-1.846-3.201l-5.681,3.283
	l7.479,2.005l-13.846,3.713l-3.882,1.042l-8.084,4.672l-9.228,2.475l-4.603,4.607l-11.349,11.359l-4.585-2.649h-4.144V68.86
	l2.283-8.529l4.783-2.764h2.392l5.896-5.901h-7.032l3.138-3.141l4.93,1.322v-4.084h-4.284l5.446-3.147l1.746-6.521l-1.982-1.983
	h-7.102L299.561,29.86L299.561,29.86z M341.929,60.152l3.026,3.029l8.875-2.38l3.561,3.564l-4.822,2.786l-7.272,1.951l-5.346-1.434
	l0.919-3.433l-2.078-2.08L341.929,60.152L341.929,60.152z M393.755,26.074l7.885,2.114l2.41-2.412h6.35l1.653,2.867h-6.95
	l-1.66,6.201l-3.736-2.159v-2.068h-4.061L393.755,26.074L393.755,26.074z M368.788,94.608l0.593,2.214l-1.767,3.064v3.43
	l-8.132,2.181l-2.432-1.405l4.447-2.57l-2.645-4.585h3.504l2.488-2.49L368.788,94.608L368.788,94.608z M375.219,84.006h-3.783
	l-1.331,4.971l-0.971,3.627l3.462-0.929l-1.214,4.534h3.836v3.699l-3.366,0.903l-1.341,5.009h5.463l-7.987,4.615h5.339l4.595-1.232
	h7.132l-2.037-3.531l3.234-1.869l-0.719-2.685h-3.127l-5.83-10.106l0.985-3.681h-4.234L375.219,84.006L375.219,84.006z
	 M506.483,33.362l-5.053,5.067l5.774,3.338h-8.662l8.825,5.099h-10.34l-3.009-3.013v3.796l-5.307-5.301l-5.866,1.567l7.635,7.642
	l-9.343-0.305l2.48,4.294h-9.282l-2.785-1.608l-6.629,6.635l-5.154-5.159l-3.142-0.845l4.117,7.133l-3.294-1.893l-2.227,3.856
	l2.318,2.311l-7.178-1.924l2.786,3.47h-5.988l-1.891-3.277l-5.927-5.932l12.892,3.459l2.755-1.598l-2.268-3.928l-12.525-3.358
	l-12.017-3.215h-6.019l-9.841,2.635l-1.159,4.335l-5.49,3.174l-1.23,4.59l-3.701,3.714l-6.75,3.897l-2.369,4.102l2.023,7.54
	l6.923,1.862l5.063-5.068l5.561,9.647l-4.575,4.579h6.507l3.406-3.409l1.972-1.974v-4.386l2.796-2.798v-2.91l-3.324-1.913
	l-1.139-4.274l5.297-5.292v-4.915h5.287l1.881,3.266l-6.212,3.583l1.962,7.326l4.148,2.392l6.547-1.75h5.51l-0.966,3.612h-6.283
	l-2.775,1.607l3.04,3.053v2.961l-4.128-2.392l-1.647,2.85l1.464,5.474l-3.944,2.28l-4.026-2.331l-7.086,4.091l-2.582-1.497
	l-4.809,1.292l-3.396-3.399l2.104-3.653l-1.667-6.238l-4.677,4.681l2.206,3.826v5.811h-3.375l-5.175,1.383v3.673l-6.822,3.938
	l-0.895,3.368l-5.419,1.455l-1.301-2.27h-2.359l1.271,4.763h-6.568v2.493l6.212,1.659l1.403,5.241v8.619h-17.456l-3.711,0.998
	l0.854,3.225l-3.243,12.12l3.437,5.953h4.941l2.389,4.141l4.707-2.727h5.378l3.711-3.714l2.358-4.081l-1.626-2.818l3.944-6.839
	l6.537-1.75v-4.885l1.353-0.366l6.466,1.741l4.636-4.641h4.402l2.47,4.285l5.826,5.831l8.865,5.119l0.956,3.572v5.281l3.416-5.912
	L427.154,146l0.671-2.544l4.859,2.809l-2.785-4.823l-5.571-1.496l-5.795-3.348l-0.997-3.734l-3.507-2.025l-1.078-4.02l3.172-1.832
	l5.988,5.983l11.508,6.655l1.647,6.126l4.229,7.348l3.965,6.869h3.64l-3.274-5.668l5.256,1.415l-5.927-5.933l1.017-3.826
	l3.528,2.035l-1.108-4.121l6.415,1.72l8.407-2.249l-6.323-3.653v-8.629l6.405-6.411l4.92,2.85v1.292l5.145,2.971l3.721-2.146
	l-4.717-2.737v-2.249l8.865-2.381l-2.013,7.49l7.838,4.538l6.425,3.704l1.444,5.414h-9.333l-10.248-2.748l-8.561,2.29l-2.948,1.709
	l-1.077,1.862h-8.185l1.901,7.103l4.81,4.813l6.374,3.683l1.982-3.438l5.388,3.113l6.364-1.699h3.437v6.573v7.958l-1.606,6.023
	l-6.537-1.749h-4.331l-3.659,2.105l-17.223-4.619l-3.304-3.308l-3.396,0.916l-2.603,2.595l0.966,3.633l-2.41,4.172l-7.319-4.232
	l-4.148-1.11l-4.88-4.884l-5.622-1.506l-6.242-3.603l3.121-3.124l-2.063-3.571l1.993-3.45l-3.548-2.045l-5.693,3.287l-3.182-1.842
	l-7.716,2.066h-8.57l-6.883,3.988h-9.007l-2.46-1.425l-3.07,5.322l-7.218,7.226l-3.212,3.215v6.137l-3.192,5.535l-6.537,1.761
	L342,195.618l-2.725,1.577l-1.718,6.401l-3.324,3.327l-4.829,8.385l3.467,3.471v10.623l-1.586,5.943l-3.111,5.393l2.318,8.66
	l4.493,2.595l6.354,11.011l-1.352,2.34l12.719,12.721l6.801,1.832l6.436-1.73h7.767l2.511,1.455l12.475-7.215h7.716l4.239,4.243
	l-0.935,3.471h11.824l2.45,4.243v12.435l-3.447,5.983l7.513,13.016l3.325,5.77l3.782,14.135v9.941l-3.568,6.188l-3.182,11.905v5.76
	l8.937,15.508v17.818l5.866,10.155l2.786,10.4l-1.698,6.34l3.365,3.368l4.402-2.544h9.943l6.588-1.761l19.326-19.344l2.287-8.559
	l-0.782-2.931l8.824-5.098l2.277-8.498l-2.247-8.404l9.293-9.301l8.845-5.109l4.188-4.191v-17.381l-4.331-4.336l2.46-9.198
	l-2.175-3.766v-5.424l7.919-13.717l15.057-15.07l6.639-11.509l2.756-10.288l4.656-4.661v-10.258l-1.932-1.119l-2.45,2.453
	l-7.208,1.933l-9.588,2.575l-5.012-5.027l1.952-1.943l-13.816-13.819l-2.766-10.358l-4.747-2.748l-2.948-11.021l-5.795-5.801
	l-1.24-4.64l-6.67-11.57l-5.917-5.922l2.471-2.474l4.209,7.307l1.759-6.533l1.922,1.934v5.058l6.557,6.563l1.586,5.942l5.358,3.094
	l3.05,11.377l5.988,5.994l6.049,10.491l3.589,13.422l5.062,1.354l5.917-3.42l9.842-5.688l6.74-1.802v-3.785l7.269-1.943v-3.358
	l8.194-4.731l-1.261-4.712l4.626-8.019l-4.524-4.528l-7.391-1.984l-2.023-7.571l-4.575,7.938h-7.228l-2.369-8.854l-1.698,6.36
	l-2.917-5.059v-3.673l-4.707-2.718l-4.81-8.344l3.396-1.964l4.066,2.351l4.016,6.95l10.939,6.329l2.317-2.319l3.172-0.846
	l3.203,5.567l12.586,3.378l6.781-1.821h4.991l3.752-1.008l3.558,6.166l6.497,3.756h4.728l-5.186,3.002l6.608,6.604l4.493-2.596
	v-3.938l1.566-0.896l1.677,6.278v4.091l4.372,7.561l2.43,9.077l9.699,16.821l2.47,9.209l4.047,2.351l2.796-4.845l2.603-4.518v-4.232
	v-6.442l-2.054-7.662l5.652-5.647l6.344-11l3.609-2.097l1.556-2.687l-1.576-2.727l3.904-2.26h5.896l2.45-2.463l4.829,8.375
	l8.692,5.018l3.029,11.295l3.67,0.977l4.22-4.223l2.531,4.386l2.135,7.947l3.478,6.045v15.66l5.551,3.206l3.863,6.686v6.767
	l3.283,5.699l5.958,3.438l3.73,0.998l-3.507-6.085v-7.836l-6.72-6.727l-3.183-1.832l-1.708-6.39l-3.976-2.3v-16.067h2.908
	l0.895,3.367l6.212,3.583l0.895,3.357l7.513,4.335v5.424l4.728-4.731l6.426-6.442V247.2l-7.127-12.364l-9.841-9.85l-1.108-4.162
	l4.656-8.08l4.859,1.303l1.078,4.02h3.131l-1.058-3.938l14.376-3.847l5.226-9.056v-13.097l-1.77-6.573l-7.563-7.571l-8.316-8.334
	l-3.7-2.138v-5.291l2.755-1.598v-2.198h-6.385l-2.074,2.086l-3.781-3.785l-4.036-1.079l-1.881-3.247l2.969-0.794l1.402-5.25
	l3.803,2.198l0.895,3.348l2.562,1.485l0.996-3.745l7.208,1.934l3.711,6.452h4.117l6.639,6.635l1.058,3.958l2.603,2.605l4.452-4.468
	l-2.693-4.67l-3.314-3.317l-11.468-6.635v-2.412l1.637-2.849l-3.335-3.328v-5.566l6.009,1.618l2.267-0.61l-2.917-10.869
	l-4.515-7.835l-13.389-13.402l-6.436-3.724l-8.286-2.219l-0.864,3.236l-6.12-3.531l-4.728-1.272l-0.884-3.307l-5.856-10.156h11.184
	l3.405-0.916l6.913,1.852l5.379-1.435l-7.016-1.883l-3.264-5.657h3.274l8.133,4.69l-3.182-5.505l8.743,2.351l1.515,5.648
	l5.194,3.001v2.972l3.793,3.806l20.647,11.926l4.819,1.293l7.116,4.122l-4.574-7.948l-5.398-1.445l1.718-2.981l-8.144-4.711
	l-7.401-4.273l-4.971-1.333l-6.039-6.044l5.643-1.517l5.072,1.363l-4.117-7.133h5.114c-1.317-0.532-2.611-1.082-3.935-1.608
	c-4.872-1.937-9.781-3.836-14.722-5.688c-4.94-1.853-9.906-3.657-14.894-5.414s-9.993-3.469-15.006-5.119
	c-3.826-1.259-7.658-2.452-11.488-3.643H658.94l7.595,4.396l-9.547-2.564h-9.394l-16.744-4.487l-7.706,2.065l-17.639-4.732h-5.582
	l-9.638-2.584l5.368,5.373l-12.403-3.328l4.463,4.457l-18.097-4.854l-9.678-2.595v2.035l-10.817-2.9h-7.452l-5.226,3.021
	l-1.891-7.051l-13.309-3.572H506.483L506.483,33.362z M509.137,120.733h6.802l2.623,6.93l-3.944-1.058l-2.837,2.838l5.49,5.485
	l5.021,5.037l2.481-2.483l3.518,6.096l-5.013-1.343l1.881,3.256l5.246,3.032l2.562,9.566h-8.845l-7.635-4.417v-8.12l-8.52-8.528
	l-1.229-4.6l-3.844-2.229v-3.215L509.137,120.733L509.137,120.733z M716.436,221.453l5.673-1.521v4.551l-2.647,2.649l-3.251-1.879
	L716.436,221.453L716.436,221.453z M636.238,260.832l-2.042,3.54l2.683,10.021h3.143l1.338-5L636.238,260.832L636.238,260.832z
	 M744.429,200.628l3.46-0.929v12.667l-3.675-6.372L744.429,200.628L744.429,200.628z M755.399,225.239h4.161l1.684,6.29
	l-2.312,4.008l4.277,7.415l5.981,1.604l0.914,3.414l-6.268-3.622h-2.386l1.355,5.064l-2.851-0.765l-2.047-7.645l-4.023-4.027
	l-1.021-3.816l4.031,2.33L755.399,225.239L755.399,225.239z M765.991,252.502h3.783l1.142,4.265v5.58l-2.841-2.844l-1.03-3.849
	L765.991,252.502L765.991,252.502z M768.261,267.647l3.216-3.219l3.029,1.751l3.521-3.525v-4.094l3.818,3.82l2.244,8.386
	l-3.237-0.868l-1.292,4.828l-4.748-2.743l1.147-1.987l-3.221-1.861l-3.697,3.701L768.261,267.647L768.261,267.647z M684.281,275.599
	l5.566,3.217l2.359-0.633l19.524,19.542l-0.995,3.717l3.634,2.1l1.312,4.897l3.353-3.355l3.832,3.836l-3.907,1.048v11.069h-5.172
	l-6.431-6.438l-0.901-3.369l-3.162-3.165l-1.95-7.283l-4.655-4.659l-1.508-5.636l-2.64-1.525l-1.5-5.601l-4.268-2.466
	L684.281,275.599L684.281,275.599z M716.058,325.201l3.026-3.029h6.809l1.783,3.092h3.892l2.111-2.114l5.142,2.972l0.548,2.046
	l5.279,1.416l-1.555,2.696l-3.902-2.256h-7.623l-3.897-2.252h-5.56L716.058,325.201L716.058,325.201z M751.616,331.638l-0.618,2.31
	l7.576-2.032l-2.589-1.496L751.616,331.638L751.616,331.638z M772.801,335.424l5.162-2.983h6.564l-6.845,3.956l-6.222,1.669
	L772.801,335.424L772.801,335.424z M730.054,289.987l5.446,3.147l1.42-5.303l4.559-2.635l6.459-6.465l4.336-7.517l1.631,0.943
	l6.438,6.443l-3.043,0.816l-1.349,5.037l1.094,4.083l3.41,5.912l-3.121-0.837v7.354l-4.562,4.565v3.765l-5.496,5.501l-5.307-5.312
	l-4.207,2.432v-2.621h-5.817v-7.194l-4.127-7.155L730.054,289.987L730.054,289.987z M761.073,320.278l2.157-8.056h-3.67L764,295.64
	l4.614-2.667l7.566,2.029l4.22-4.224l-1.917,7.162h-11.357l-2.462,4.271l1.784,3.095l4.283-2.476l4.772-1.279l-6.011,3.474
	l3.236,5.61l-1.225,4.576l-3.479,2.01l-1.308-4.886v-4.173h-2.24v9.466L761.073,320.278L761.073,320.278z M789.445,290.744
	l2.648,2.65l-1.117,4.171v5.296l-3.665-6.355L789.445,290.744L789.445,290.744z M802.307,299.074l-2.979,5.168l3.396,1.962h6.016
	l1.1-4.109L802.307,299.074L802.307,299.074z M803.063,309.298l6.284-1.685l4.32,4.323l7.364-7.372l10.014,5.787l11.118,2.981
	l3.59,3.595l-1.486,2.576l6.857,1.84l-0.611,2.285l-3.356,1.939l4.526,7.848l4.272,7.407l-8.482-4.902l-4.862-4.867l-4.78-2.763
	l-5.365,1.439l4.031,4.035h-9.223l-2.144-3.715h-5.801l3.699-6.413l-3.267-5.662l-8.822-2.366l-2.651-4.596l-2.617,4.537
	L803.063,309.298L803.063,309.298z M853.755,319.9l5.225,1.4l3.194-3.197l2.838-2.84l2.32,0.623l-2.81,4.872l-4.759,2.75
	l-4.787-1.284L853.755,319.9L853.755,319.9z M799.659,343.376l6.12,1.641l6.284,1.686l-5.297,5.302l-1.491,5.568l9.582,9.591
	l3.028-0.812l5.021-8.707l2.242-8.375l5.174-8.969l1.246,4.655v9.4l3.108,1.796v11.078l-2.424,4.2l4.68,4.685v9.289l2.773,1.603
	l-2.249,3.9l1.609,2.79l-2.102,7.85l-4.341,7.525l-14.117,14.131l-3.973,3.976l-12.438,7.188l-8.538,8.545l-13.361,3.584v-3.158
	l-7.306,4.222l-4.804-4.807l4.296-7.447h-2.988l3.204-5.555l4.473-4.477l-12.914,7.463l2.702-10.093l-5.425-3.135l-24.692,6.623
	l-3.239,3.242h-10.26l-12.582,3.374l-2.605-2.608l4.784-4.788l2.772-10.355l3.844-3.848v-13.249l1.465-0.847l1.073,4.008
	l1.705-2.956v-6.642l4.063-7.045l3.516-0.942l7.6-4.393l8.339-2.236l2.137,0.573l7.216-4.17l4.972-8.618l2.759-1.595v2.3
	l5.132-2.965v-4.987l9.357-5.408l2.689,4.663l6.395,1.715l-1.568-5.861l6.881-6.888l5.626,1.51L799.659,343.376L799.659,343.376z
	 M769.774,453.182l2.459,2.461l6.602-1.771l-3.429,3.432l-12.298,7.107l1.264-4.72h1.619L769.774,453.182L769.774,453.182z
	 M803.82,471.356l8.774-5.071l9.732-2.61l5.768-1.546l8.666-5.009l7.4-4.276l1.021,3.812l-11.723,6.774l-8.991,2.412l-6.762,3.907
	l-10.03,5.796L803.82,471.356L803.82,471.356z M852.998,448.26l6.865-3.968l6.385-3.69l2.778-10.378l2.791,4.838l-4.843,4.848
	l1.028,3.841l4.497-2.6l-1.272,4.755l-8.842,2.371l-13.714,7.925v-3.02l6.016-1.613L852.998,448.26L852.998,448.26z
	 M537.505,346.026l2.138,7.986l-2.498,9.334l-3.166,5.487l-2.467,9.217l-6.089,10.557l-1.692,6.322l-5.26,3.04l-5.059-2.924
	l1.606-6.001l-2.522-4.373l5.654-9.803v-11.047l3.436-3.438l7.105-1.906l5.52-5.524L537.505,346.026L537.505,346.026z
	 M753.886,162.007h9.079l-1.425-5.325l3.296-1.905l-2.84-4.924l-3.428-5.944l-0.622-2.322l9.406,5.436l1.609,6.012l8.859,8.867
	l-5.12,2.96l-5.184-1.39l1.79,6.685l-5.63-3.253h-10.17L753.886,162.007L753.886,162.007z M753.508,169.579l6.473,1.736l1.936,7.228
	l-5.577-3.223l-1.338-2.321l-3.703-0.993L753.508,169.579L753.508,169.579z M759.561,168.443l3.107-0.833l2.268,2.269l-2.727,2.729
	L759.561,168.443L759.561,168.443z M744.808,127.171l8.615,2.311l9.39,5.426l-2.166,3.755l-5.423-3.134l-1.098,4.101l-3.77-1.012
	v-4.631L744.808,127.171L744.808,127.171z M711.14,99.531l24.994,14.443l-3.119,0.836l12.554,7.255l-4.187,2.419L711.14,99.531
	L711.14,99.531z M469.413,34.783l-3.373-1.949l-7.859,2.108l3.131,11.695l10.662,2.859l-7.596-4.39l-1.915-7.156L469.413,34.783
	L469.413,34.783z M472.323,163.011l5.847-1.567l-0.602,2.244l-3.11,1.798L472.323,163.011L472.323,163.011z"/>
</svg>
