<svg version="1.1" viewBox="0.0 0.0 600.0 371.0" fill="none" stroke="none" stroke-linecap="square" stroke-miterlimit="10" width="600" height="371" xmlns:xlink="http://www.w3.org/1999/xlink" xmlns="http://www.w3.org/2000/svg"><path fill="#ffffff" d="M0 0L600.0 0L600.0 371.0L0 371.0L0 0Z" fill-rule="nonzero"/><path stroke="#333333" stroke-width="1.0" stroke-linecap="butt" d="M57.5 331.5L581.5 331.5" fill-rule="nonzero"/><path stroke="#cccccc" stroke-width="1.0" stroke-linecap="butt" d="M57.5 255.5L581.5 255.5" fill-rule="nonzero"/><path stroke="#cccccc" stroke-width="1.0" stroke-linecap="butt" d="M57.5 178.5L581.5 178.5" fill-rule="nonzero"/><path stroke="#cccccc" stroke-width="1.0" stroke-linecap="butt" d="M57.5 102.5L581.5 102.5" fill-rule="nonzero"/><path stroke="#cccccc" stroke-width="1.0" stroke-linecap="butt" d="M57.5 26.5L581.5 26.5" fill-rule="nonzero"/><clipPath id="id_0"><path d="M57.55 26.05L581.45 26.05L581.45 331.45L57.55 331.45L57.55 26.05Z" clip-rule="nonzero"/></clipPath><path stroke="#000000" stroke-width="2.0" stroke-linecap="butt" stroke-opacity="0.0" clip-path="url(#id_0)" d="M214.0 331.0L112.0 331.0L112.0 91.0L214.0 91.0Z" fill-rule="nonzero"/><path fill="#00c0ce" clip-path="url(#id_0)" d="M214.0 331.0L112.0 331.0L112.0 91.0L214.0 91.0Z" fill-rule="nonzero"/><path stroke="#000000" stroke-width="2.0" stroke-linecap="butt" stroke-opacity="0.0" clip-path="url(#id_0)" d="M371.0 331.0L269.0 331.0L269.0 99.0L371.0 99.0Z" fill-rule="nonzero"/><path fill="#00c0ce" clip-path="url(#id_0)" d="M371.0 331.0L269.0 331.0L269.0 99.0L371.0 99.0Z" fill-rule="nonzero"/><path stroke="#000000" stroke-width="2.0" stroke-linecap="butt" stroke-opacity="0.0" clip-path="url(#id_0)" d="M527.0 331.0L425.0 331.0L425.0 93.0L527.0 93.0Z" fill-rule="nonzero"/><path fill="#00c0ce" clip-path="url(#id_0)" d="M527.0 331.0L425.0 331.0L425.0 93.0L527.0 93.0Z" fill-rule="nonzero"/><path stroke="#000000" stroke-width="2.0" stroke-linecap="butt" stroke-opacity="0.0" clip-path="url(#id_0)" d="M214.0 91.0L112.0 91.0L112.0 51.0L214.0 51.0Z" fill-rule="nonzero"/><path fill="#f9492d" clip-path="url(#id_0)" d="M214.0 91.0L112.0 91.0L112.0 51.0L214.0 51.0Z" fill-rule="nonzero"/><path stroke="#000000" stroke-width="2.0" stroke-linecap="butt" stroke-opacity="0.0" clip-path="url(#id_0)" d="M371.0 99.0L269.0 99.0L269.0 53.0L371.0 53.0Z" fill-rule="nonzero"/><path fill="#f9492d" clip-path="url(#id_0)" d="M371.0 99.0L269.0 99.0L269.0 53.0L371.0 53.0Z" fill-rule="nonzero"/><path stroke="#000000" stroke-width="2.0" stroke-linecap="butt" stroke-opacity="0.0" clip-path="url(#id_0)" d="M527.0 93.0L425.0 93.0L425.0 50.0L527.0 50.0Z" fill-rule="nonzero"/><path fill="#f9492d" clip-path="url(#id_0)" d="M527.0 93.0L425.0 93.0L425.0 50.0L527.0 50.0Z" fill-rule="nonzero"/><path stroke="#000000" stroke-width="2.0" stroke-linecap="butt" stroke-opacity="0.0" clip-path="url(#id_0)" d="M214.0 51.0L112.0 51.0L112.0 28.0C112.0 26.89543 112.89543 26.0 114.0 26.0L212.0 26.0C213.10457 26.0 214.0 26.89543 214.0 28.0Z" fill-rule="nonzero"/><path fill="#999999" clip-path="url(#id_0)" d="M214.0 51.0L112.0 51.0L112.0 28.0C112.0 26.89543 112.89543 26.0 114.0 26.0L212.0 26.0C213.10457 26.0 214.0 26.89543 214.0 28.0Z" fill-rule="nonzero"/><path stroke="#000000" stroke-width="2.0" stroke-linecap="butt" stroke-opacity="0.0" clip-path="url(#id_0)" d="M371.0 53.0L269.0 53.0L269.0 28.0C269.0 26.89543 269.89542 26.0 271.0 26.0L369.0 26.0C370.10458 26.0 371.0 26.89543 371.0 28.0Z" fill-rule="nonzero"/><path fill="#999999" clip-path="url(#id_0)" d="M371.0 53.0L269.0 53.0L269.0 28.0C269.0 26.89543 269.89542 26.0 271.0 26.0L369.0 26.0C370.10458 26.0 371.0 26.89543 371.0 28.0Z" fill-rule="nonzero"/><path stroke="#000000" stroke-width="2.0" stroke-linecap="butt" stroke-opacity="0.0" clip-path="url(#id_0)" d="M527.0 50.0L425.0 50.0L425.0 28.0C425.0 26.89543 425.89542 26.0 427.0 26.0L525.0 26.0C526.10455 26.0 527.0 26.89543 527.0 28.0Z" fill-rule="nonzero"/><path fill="#999999" clip-path="url(#id_0)" d="M527.0 50.0L425.0 50.0L425.0 28.0C425.0 26.89543 425.89542 26.0 427.0 26.0L525.0 26.0C526.10455 26.0 527.0 26.89543 527.0 28.0Z" fill-rule="nonzero"/><path fill="#666666" d="M38.6125 331.59064Q38.6125 333.9344 37.925 335.04376Q37.253124 336.1375 35.83125 336.1375Q34.378124 336.1375 33.70625 335.0125Q33.034374 333.8875 33.034374 331.59064Q33.034374 329.23126 33.721874 328.1375Q34.409374 327.04376 35.83125 327.04376Q37.26875 327.04376 37.940624 328.1844Q38.6125 329.3094 38.6125 331.59064ZM37.1125 334.2469Q37.284374 333.8094 37.346874 333.15314Q37.425 332.48126 37.425 331.59064Q37.425 330.6844 37.346874 330.02814Q37.284374 329.35626 37.1125 328.91876Q36.940624 328.48126 36.628124 328.2469Q36.315624 328.0125 35.83125 328.0125Q35.346874 328.0125 35.01875 328.2469Q34.70625 328.48126 34.534374 328.9344Q34.3625 329.3875 34.284374 330.075Q34.221874 330.7469 34.221874 331.59064Q34.221874 332.5125 34.26875 333.1375Q34.33125 333.7469 34.51875 334.23126Q34.690624 334.6844 35.003124 334.9344Q35.315624 335.16876 35.83125 335.16876Q36.315624 335.16876 36.628124 334.9344Q36.940624 334.7 37.1125 334.2469ZM44.284374 329.6375Q44.284374 330.96564 43.753124 331.60626Q43.221874 332.23126 42.221874 332.23126Q41.190624 332.23126 40.659374 331.59064Q40.14375 330.95 40.14375 329.65314Q40.14375 328.34064 40.675 327.7Q41.221874 327.0594 42.221874 327.0594Q43.2375 327.0594 43.753124 327.71564Q44.284374 328.35626 44.284374 329.6375ZM48.175 327.23126L43.6125 335.95L42.64375 335.95L47.221874 327.23126L48.175 327.23126ZM50.659374 333.52814Q50.659374 334.84064 50.128124 335.48126Q49.6125 336.1219 48.596874 336.1219Q47.58125 336.1219 47.05 335.48126Q46.534374 334.825 46.534374 333.52814Q46.534374 332.21564 47.065624 331.59064Q47.596874 330.95 48.596874 330.95Q49.628124 330.95 50.14375 331.59064Q50.659374 332.23126 50.659374 333.52814ZM43.2375 329.6375Q43.2375 328.7469 43.01875 328.29376Q42.815624 327.84064 42.221874 327.84064Q41.6125 327.84064 41.39375 328.3094Q41.190624 328.7625 41.190624 329.65314Q41.190624 330.52814 41.39375 330.9969Q41.596874 331.45 42.221874 331.45Q42.815624 331.45 43.01875 330.9969Q43.2375 330.52814 43.2375 329.6375ZM49.628124 333.52814Q49.628124 332.6375 49.409374 332.1844Q49.20625 331.73126 48.596874 331.73126Q48.003124 331.73126 47.784374 332.2Q47.58125 332.65314 47.58125 333.52814Q47.58125 334.41876 47.76875 334.8875Q47.971874 335.34064 48.596874 335.34064Q49.20625 335.34064 49.409374 334.8875Q49.628124 334.41876 49.628124 333.52814Z" fill-rule="nonzero"/><path fill="#666666" d="M31.58125 259.6L26.190624 259.6L26.190624 258.38126Q26.76875 257.81876 27.284374 257.31876Q27.8 256.81876 28.3 256.27188Q29.284374 255.17813 29.64375 254.52188Q30.01875 253.85 30.01875 253.14688Q30.01875 252.7875 29.89375 252.52188Q29.784374 252.24063 29.58125 252.05313Q29.378124 251.88126 29.1125 251.80313Q28.846874 251.70938 28.51875 251.70938Q28.20625 251.70938 27.878124 251.7875Q27.565624 251.86563 27.284374 251.975Q27.034374 252.08438 26.8 252.225Q26.58125 252.36563 26.440624 252.45938L26.378124 252.45938L26.378124 251.225Q26.7375 251.0375 27.378124 250.86563Q28.034374 250.69376 28.6125 250.69376Q29.83125 250.69376 30.51875 251.35Q31.20625 251.99063 31.20625 253.1Q31.20625 253.6 31.08125 254.0375Q30.971874 254.475 30.753124 254.83438Q30.55 255.225 30.2375 255.6Q29.940624 255.975 29.596874 256.33438Q29.05 256.92813 28.3625 257.58438Q27.690624 258.225 27.284374 258.6L31.58125 258.6L31.58125 259.6ZM38.471874 256.81876Q38.471874 257.45938 38.26875 258.00626Q38.065624 258.5375 37.70625 258.92813Q37.33125 259.31876 36.784374 259.55313Q36.2375 259.7875 35.565624 259.7875Q34.940624 259.7875 34.33125 259.64688Q33.721874 259.50626 33.284374 259.2875L33.284374 258.05313L33.3625 258.05313Q33.4875 258.14688 33.7375 258.27188Q34.003124 258.39688 34.3 258.50626Q34.64375 258.63126 34.925 258.70938Q35.221874 258.77188 35.58125 258.77188Q35.925 258.77188 36.253124 258.64688Q36.596874 258.52188 36.846874 258.24063Q37.05 257.975 37.159374 257.63126Q37.284374 257.2875 37.284374 256.81876Q37.284374 256.35 37.159374 256.05313Q37.034374 255.75626 36.8 255.56876Q36.534374 255.33438 36.175 255.25626Q35.815624 255.1625 35.3625 255.1625Q34.878124 255.1625 34.39375 255.24063Q33.925 255.30313 33.628124 255.36563L33.628124 250.88126L38.425 250.88126L38.425 251.89688L34.76875 251.89688L34.76875 254.225Q34.971874 254.19376 35.175 254.19376Q35.39375 254.17813 35.55 254.17813Q36.221874 254.17813 36.675 254.2875Q37.14375 254.39688 37.58125 254.725Q38.01875 255.05313 38.2375 255.55313Q38.471874 256.0375 38.471874 256.81876ZM44.284374 253.2875Q44.284374 254.61563 43.753124 255.25626Q43.221874 255.88126 42.221874 255.88126Q41.190624 255.88126 40.659374 255.24063Q40.14375 254.6 40.14375 253.30313Q40.14375 251.99063 40.675 251.35Q41.221874 250.70938 42.221874 250.70938Q43.2375 250.70938 43.753124 251.36563Q44.284374 252.00626 44.284374 253.2875ZM48.175 250.88126L43.6125 259.6L42.64375 259.6L47.221874 250.88126L48.175 250.88126ZM50.659374 257.17813Q50.659374 258.49063 50.128124 259.13126Q49.6125 259.77188 48.596874 259.77188Q47.58125 259.77188 47.05 259.13126Q46.534374 258.475 46.534374 257.17813Q46.534374 255.86563 47.065624 255.24063Q47.596874 254.6 48.596874 254.6Q49.628124 254.6 50.14375 255.24063Q50.659374 255.88126 50.659374 257.17813ZM43.2375 253.2875Q43.2375 252.39688 43.01875 251.94376Q42.815624 251.49063 42.221874 251.49063Q41.6125 251.49063 41.39375 251.95938Q41.190624 252.4125 41.190624 253.30313Q41.190624 254.17813 41.39375 254.64688Q41.596874 255.1 42.221874 255.1Q42.815624 255.1 43.01875 254.64688Q43.2375 254.17813 43.2375 253.2875ZM49.628124 257.17813Q49.628124 256.2875 49.409374 255.83438Q49.20625 255.38126 48.596874 255.38126Q48.003124 255.38126 47.784374 255.85Q47.58125 256.30313 47.58125 257.17813Q47.58125 258.06876 47.76875 258.5375Q47.971874 258.99063 48.596874 258.99063Q49.20625 258.99063 49.409374 258.5375Q49.628124 258.06876 49.628124 257.17813Z" fill-rule="nonzero"/><path fill="#666666" d="M31.471874 180.46875Q31.471874 181.10938 31.26875 181.65625Q31.065624 182.1875 30.70625 182.57812Q30.33125 182.96875 29.784374 183.20312Q29.2375 183.4375 28.565624 183.4375Q27.940624 183.4375 27.33125 183.29688Q26.721874 183.15625 26.284374 182.9375L26.284374 181.70312L26.3625 181.70312Q26.4875 181.79688 26.7375 181.92188Q27.003124 182.04688 27.3 182.15625Q27.64375 182.28125 27.925 182.35938Q28.221874 182.42188 28.58125 182.42188Q28.925 182.42188 29.253124 182.29688Q29.596874 182.17188 29.846874 181.89062Q30.05 181.625 30.159374 181.28125Q30.284374 180.9375 30.284374 180.46875Q30.284374 180.0 30.159374 179.70312Q30.034374 179.40625 29.8 179.21875Q29.534374 178.98438 29.175 178.90625Q28.815624 178.8125 28.3625 178.8125Q27.878124 178.8125 27.39375 178.89062Q26.925 178.95312 26.628124 179.01562L26.628124 174.53125L31.425 174.53125L31.425 175.54688L27.76875 175.54688L27.76875 177.875Q27.971874 177.84375 28.175 177.84375Q28.39375 177.82812 28.55 177.82812Q29.221874 177.82812 29.675 177.9375Q30.14375 178.04688 30.58125 178.375Q31.01875 178.70312 31.2375 179.20312Q31.471874 179.6875 31.471874 180.46875ZM38.6125 178.89062Q38.6125 181.23438 37.925 182.34375Q37.253124 183.4375 35.83125 183.4375Q34.378124 183.4375 33.70625 182.3125Q33.034374 181.1875 33.034374 178.89062Q33.034374 176.53125 33.721874 175.4375Q34.409374 174.34375 35.83125 174.34375Q37.26875 174.34375 37.940624 175.48438Q38.6125 176.60938 38.6125 178.89062ZM37.1125 181.54688Q37.284374 181.10938 37.346874 180.45312Q37.425 179.78125 37.425 178.89062Q37.425 177.98438 37.346874 177.32812Q37.284374 176.65625 37.1125 176.21875Q36.940624 175.78125 36.628124 175.54688Q36.315624 175.3125 35.83125 175.3125Q35.346874 175.3125 35.01875 175.54688Q34.70625 175.78125 34.534374 176.23438Q34.3625 176.6875 34.284374 177.375Q34.221874 178.04688 34.221874 178.89062Q34.221874 179.8125 34.26875 180.4375Q34.33125 181.04688 34.51875 181.53125Q34.690624 181.98438 35.003124 182.23438Q35.315624 182.46875 35.83125 182.46875Q36.315624 182.46875 36.628124 182.23438Q36.940624 182.0 37.1125 181.54688ZM44.284374 176.9375Q44.284374 178.26562 43.753124 178.90625Q43.221874 179.53125 42.221874 179.53125Q41.190624 179.53125 40.659374 178.89062Q40.14375 178.25 40.14375 176.95312Q40.14375 175.64062 40.675 175.0Q41.221874 174.35938 42.221874 174.35938Q43.2375 174.35938 43.753124 175.01562Q44.284374 175.65625 44.284374 176.9375ZM48.175 174.53125L43.6125 183.25L42.64375 183.25L47.221874 174.53125L48.175 174.53125ZM50.659374 180.82812Q50.659374 182.14062 50.128124 182.78125Q49.6125 183.42188 48.596874 183.42188Q47.58125 183.42188 47.05 182.78125Q46.534374 182.125 46.534374 180.82812Q46.534374 179.51562 47.065624 178.89062Q47.596874 178.25 48.596874 178.25Q49.628124 178.25 50.14375 178.89062Q50.659374 179.53125 50.659374 180.82812ZM43.2375 176.9375Q43.2375 176.04688 43.01875 175.59375Q42.815624 175.14062 42.221874 175.14062Q41.6125 175.14062 41.39375 175.60938Q41.190624 176.0625 41.190624 176.95312Q41.190624 177.82812 41.39375 178.29688Q41.596874 178.75 42.221874 178.75Q42.815624 178.75 43.01875 178.29688Q43.2375 177.82812 43.2375 176.9375ZM49.628124 180.82812Q49.628124 179.9375 49.409374 179.48438Q49.20625 179.03125 48.596874 179.03125Q48.003124 179.03125 47.784374 179.5Q47.58125 179.95312 47.58125 180.82812Q47.58125 181.71875 47.76875 182.1875Q47.971874 182.64062 48.596874 182.64062Q49.20625 182.64062 49.409374 182.1875Q49.628124 181.71875 49.628124 180.82812Z" fill-rule="nonzero"/><path fill="#666666" d="M31.675 99.47813L27.89375 106.9L26.64375 106.9L30.64375 99.19688L26.128124 99.19688L26.128124 98.18125L31.675 98.18125L31.675 99.47813ZM38.471874 104.11875Q38.471874 104.75938 38.26875 105.30625Q38.065624 105.8375 37.70625 106.22813Q37.33125 106.61875 36.784374 106.85313Q36.2375 107.0875 35.565624 107.0875Q34.940624 107.0875 34.33125 106.94688Q33.721874 106.80625 33.284374 106.5875L33.284374 105.35313L33.3625 105.35313Q33.4875 105.44688 33.7375 105.57188Q34.003124 105.69688 34.3 105.80625Q34.64375 105.93125 34.925 106.00938Q35.221874 106.07188 35.58125 106.07188Q35.925 106.07188 36.253124 105.94688Q36.596874 105.82188 36.846874 105.54063Q37.05 105.275 37.159374 104.93125Q37.284374 104.5875 37.284374 104.11875Q37.284374 103.65 37.159374 103.35313Q37.034374 103.05625 36.8 102.86875Q36.534374 102.63438 36.175 102.55625Q35.815624 102.4625 35.3625 102.4625Q34.878124 102.4625 34.39375 102.54063Q33.925 102.60313 33.628124 102.66563L33.628124 98.18125L38.425 98.18125L38.425 99.19688L34.76875 99.19688L34.76875 101.525Q34.971874 101.49375 35.175 101.49375Q35.39375 101.47813 35.55 101.47813Q36.221874 101.47813 36.675 101.5875Q37.14375 101.69688 37.58125 102.025Q38.01875 102.35313 38.2375 102.85313Q38.471874 103.3375 38.471874 104.11875ZM44.284374 100.5875Q44.284374 101.91563 43.753124 102.55625Q43.221874 103.18125 42.221874 103.18125Q41.190624 103.18125 40.659374 102.54063Q40.14375 101.9 40.14375 100.60313Q40.14375 99.29063 40.675 98.65Q41.221874 98.00938 42.221874 98.00938Q43.2375 98.00938 43.753124 98.66563Q44.284374 99.30625 44.284374 100.5875ZM48.175 98.18125L43.6125 106.9L42.64375 106.9L47.221874 98.18125L48.175 98.18125ZM50.659374 104.47813Q50.659374 105.79063 50.128124 106.43125Q49.6125 107.07188 48.596874 107.07188Q47.58125 107.07188 47.05 106.43125Q46.534374 105.775 46.534374 104.47813Q46.534374 103.16563 47.065624 102.54063Q47.596874 101.9 48.596874 101.9Q49.628124 101.9 50.14375 102.54063Q50.659374 103.18125 50.659374 104.47813ZM43.2375 100.5875Q43.2375 99.69688 43.01875 99.24375Q42.815624 98.79063 42.221874 98.79063Q41.6125 98.79063 41.39375 99.25938Q41.190624 99.7125 41.190624 100.60313Q41.190624 101.47813 41.39375 101.94688Q41.596874 102.4 42.221874 102.4Q42.815624 102.4 43.01875 101.94688Q43.2375 101.47813 43.2375 100.5875ZM49.628124 104.47813Q49.628124 103.5875 49.409374 103.13438Q49.20625 102.68125 48.596874 102.68125Q48.003124 102.68125 47.784374 103.15Q47.58125 103.60313 47.58125 104.47813Q47.58125 105.36875 47.76875 105.8375Q47.971874 106.29063 48.596874 106.29063Q49.20625 106.29063 49.409374 105.8375Q49.628124 105.36875 49.628124 104.47813Z" fill-rule="nonzero"/><path fill="#666666" d="M24.128124 30.55L19.878124 30.55L19.878124 29.659374L21.45625 29.659374L21.45625 23.815624L19.878124 23.815624L19.878124 23.01875Q20.76875 23.01875 21.190624 22.76875Q21.628124 22.503124 21.675 21.8L22.58125 21.8L22.58125 29.659374L24.128124 29.659374L24.128124 30.55ZM31.6125 26.190624Q31.6125 28.534374 30.925 29.64375Q30.253124 30.7375 28.83125 30.7375Q27.378124 30.7375 26.70625 29.6125Q26.034374 28.4875 26.034374 26.190624Q26.034374 23.83125 26.721874 22.7375Q27.409374 21.64375 28.83125 21.64375Q30.26875 21.64375 30.940624 22.784374Q31.6125 23.909374 31.6125 26.190624ZM30.1125 28.846874Q30.284374 28.409374 30.346874 27.753124Q30.425 27.08125 30.425 26.190624Q30.425 25.284374 30.346874 24.628124Q30.284374 23.95625 30.1125 23.51875Q29.940624 23.08125 29.628124 22.846874Q29.315624 22.6125 28.83125 22.6125Q28.346874 22.6125 28.01875 22.846874Q27.70625 23.08125 27.534374 23.534374Q27.3625 23.9875 27.284374 24.675Q27.221874 25.346874 27.221874 26.190624Q27.221874 27.1125 27.26875 27.7375Q27.33125 28.346874 27.51875 28.83125Q27.690624 29.284374 28.003124 29.534374Q28.315624 29.76875 28.83125 29.76875Q29.315624 29.76875 29.628124 29.534374Q29.940624 29.3 30.1125 28.846874ZM38.6125 26.190624Q38.6125 28.534374 37.925 29.64375Q37.253124 30.7375 35.83125 30.7375Q34.378124 30.7375 33.70625 29.6125Q33.034374 28.4875 33.034374 26.190624Q33.034374 23.83125 33.721874 22.7375Q34.409374 21.64375 35.83125 21.64375Q37.26875 21.64375 37.940624 22.784374Q38.6125 23.909374 38.6125 26.190624ZM37.1125 28.846874Q37.284374 28.409374 37.346874 27.753124Q37.425 27.08125 37.425 26.190624Q37.425 25.284374 37.346874 24.628124Q37.284374 23.95625 37.1125 23.51875Q36.940624 23.08125 36.628124 22.846874Q36.315624 22.6125 35.83125 22.6125Q35.346874 22.6125 35.01875 22.846874Q34.70625 23.08125 34.534374 23.534374Q34.3625 23.9875 34.284374 24.675Q34.221874 25.346874 34.221874 26.190624Q34.221874 27.1125 34.26875 27.7375Q34.33125 28.346874 34.51875 28.83125Q34.690624 29.284374 35.003124 29.534374Q35.315624 29.76875 35.83125 29.76875Q36.315624 29.76875 36.628124 29.534374Q36.940624 29.3 37.1125 28.846874ZM44.284374 24.2375Q44.284374 25.565624 43.753124 26.20625Q43.221874 26.83125 42.221874 26.83125Q41.190624 26.83125 40.659374 26.190624Q40.14375 25.55 40.14375 24.253124Q40.14375 22.940624 40.675 22.3Q41.221874 21.659374 42.221874 21.659374Q43.2375 21.659374 43.753124 22.315624Q44.284374 22.95625 44.284374 24.2375ZM48.175 21.83125L43.6125 30.55L42.64375 30.55L47.221874 21.83125L48.175 21.83125ZM50.659374 28.128124Q50.659374 29.440624 50.128124 30.08125Q49.6125 30.721874 48.596874 30.721874Q47.58125 30.721874 47.05 30.08125Q46.534374 29.425 46.534374 28.128124Q46.534374 26.815624 47.065624 26.190624Q47.596874 25.55 48.596874 25.55Q49.628124 25.55 50.14375 26.190624Q50.659374 26.83125 50.659374 28.128124ZM43.2375 24.2375Q43.2375 23.346874 43.01875 22.89375Q42.815624 22.440624 42.221874 22.440624Q41.6125 22.440624 41.39375 22.909374Q41.190624 23.3625 41.190624 24.253124Q41.190624 25.128124 41.39375 25.596874Q41.596874 26.05 42.221874 26.05Q42.815624 26.05 43.01875 25.596874Q43.2375 25.128124 43.2375 24.2375ZM49.628124 28.128124Q49.628124 27.2375 49.409374 26.784374Q49.20625 26.33125 48.596874 26.33125Q48.003124 26.33125 47.784374 26.8Q47.58125 27.253124 47.58125 28.128124Q47.58125 29.01875 47.76875 29.4875Q47.971874 29.940624 48.596874 29.940624Q49.20625 29.940624 49.409374 29.4875Q49.628124 29.01875 49.628124 28.128124Z" fill-rule="nonzero"/><path fill="#666666" d="M155.14319 349.45L149.75256 349.45L149.75256 348.23126Q150.33069 347.66876 150.84631 347.16876Q151.36194 346.66876 151.86194 346.1219Q152.84631 345.02814 153.20569 344.3719Q153.58069 343.7 153.58069 342.9969Q153.58069 342.6375 153.45569 342.3719Q153.34631 342.09064 153.14319 341.90314Q152.94006 341.73126 152.67444 341.65314Q152.40881 341.5594 152.08069 341.5594Q151.76819 341.5594 151.44006 341.6375Q151.12756 341.71564 150.84631 341.825Q150.59631 341.9344 150.36194 342.075Q150.14319 342.21564 150.00256 342.3094L149.94006 342.3094L149.94006 341.075Q150.29944 340.8875 150.94006 340.71564Q151.59631 340.54376 152.17444 340.54376Q153.39319 340.54376 154.08069 341.2Q154.76819 341.84064 154.76819 342.95Q154.76819 343.45 154.64319 343.8875Q154.53381 344.325 154.31506 344.6844Q154.11194 345.075 153.79944 345.45Q153.50256 345.825 153.15881 346.1844Q152.61194 346.77814 151.92444 347.4344Q151.25256 348.075 150.84631 348.45L155.14319 348.45L155.14319 349.45ZM162.17444 345.09064Q162.17444 347.4344 161.48694 348.54376Q160.81506 349.6375 159.39319 349.6375Q157.94006 349.6375 157.26819 348.5125Q156.59631 347.3875 156.59631 345.09064Q156.59631 342.73126 157.28381 341.6375Q157.97131 340.54376 159.39319 340.54376Q160.83069 340.54376 161.50256 341.6844Q162.17444 342.8094 162.17444 345.09064ZM160.67444 347.7469Q160.84631 347.3094 160.90881 346.65314Q160.98694 345.98126 160.98694 345.09064Q160.98694 344.1844 160.90881 343.52814Q160.84631 342.85626 160.67444 342.41876Q160.50256 341.98126 160.19006 341.7469Q159.87756 341.5125 159.39319 341.5125Q158.90881 341.5125 158.58069 341.7469Q158.26819 341.98126 158.09631 342.4344Q157.92444 342.8875 157.84631 343.575Q157.78381 344.2469 157.78381 345.09064Q157.78381 346.0125 157.83069 346.6375Q157.89319 347.2469 158.08069 347.73126Q158.25256 348.1844 158.56506 348.4344Q158.87756 348.66876 159.39319 348.66876Q159.87756 348.66876 160.19006 348.4344Q160.50256 348.2 160.67444 347.7469ZM169.14319 349.45L163.75256 349.45L163.75256 348.23126Q164.33069 347.66876 164.84631 347.16876Q165.36194 346.66876 165.86194 346.1219Q166.84631 345.02814 167.20569 344.3719Q167.58069 343.7 167.58069 342.9969Q167.58069 342.6375 167.45569 342.3719Q167.34631 342.09064 167.14319 341.90314Q166.94006 341.73126 166.67444 341.65314Q166.40881 341.5594 166.08069 341.5594Q165.76819 341.5594 165.44006 341.6375Q165.12756 341.71564 164.84631 341.825Q164.59631 341.9344 164.36194 342.075Q164.14319 342.21564 164.00256 342.3094L163.94006 342.3094L163.94006 341.075Q164.29944 340.8875 164.94006 340.71564Q165.59631 340.54376 166.17444 340.54376Q167.39319 340.54376 168.08069 341.2Q168.76819 341.84064 168.76819 342.95Q168.76819 343.45 168.64319 343.8875Q168.53381 344.325 168.31506 344.6844Q168.11194 345.075 167.79944 345.45Q167.50256 345.825 167.15881 346.1844Q166.61194 346.77814 165.92444 347.4344Q165.25256 348.075 164.84631 348.45L169.14319 348.45L169.14319 349.45ZM176.17444 345.09064Q176.17444 347.4344 175.48694 348.54376Q174.81506 349.6375 173.39319 349.6375Q171.94006 349.6375 171.26819 348.5125Q170.59631 347.3875 170.59631 345.09064Q170.59631 342.73126 171.28381 341.6375Q171.97131 340.54376 173.39319 340.54376Q174.83069 340.54376 175.50256 341.6844Q176.17444 342.8094 176.17444 345.09064ZM174.67444 347.7469Q174.84631 347.3094 174.90881 346.65314Q174.98694 345.98126 174.98694 345.09064Q174.98694 344.1844 174.90881 343.52814Q174.84631 342.85626 174.67444 342.41876Q174.50256 341.98126 174.19006 341.7469Q173.87756 341.5125 173.39319 341.5125Q172.90881 341.5125 172.58069 341.7469Q172.26819 341.98126 172.09631 342.4344Q171.92444 342.8875 171.84631 343.575Q171.78381 344.2469 171.78381 345.09064Q171.78381 346.0125 171.83069 346.6375Q171.89319 347.2469 172.08069 347.73126Q172.25256 348.1844 172.56506 348.4344Q172.87756 348.66876 173.39319 348.66876Q173.87756 348.66876 174.19006 348.4344Q174.50256 348.2 174.67444 347.7469Z" fill-rule="nonzero"/><path fill="#666666" d="M311.53125 349.45L306.14062 349.45L306.14062 348.23126Q306.71875 347.66876 307.23438 347.16876Q307.75 346.66876 308.25 346.1219Q309.23438 345.02814 309.59375 344.3719Q309.96875 343.7 309.96875 342.9969Q309.96875 342.6375 309.84375 342.3719Q309.73438 342.09064 309.53125 341.90314Q309.32812 341.73126 309.0625 341.65314Q308.79688 341.5594 308.46875 341.5594Q308.15625 341.5594 307.82812 341.6375Q307.51562 341.71564 307.23438 341.825Q306.98438 341.9344 306.75 342.075Q306.53125 342.21564 306.39062 342.3094L306.32812 342.3094L306.32812 341.075Q306.6875 340.8875 307.32812 340.71564Q307.98438 340.54376 308.5625 340.54376Q309.78125 340.54376 310.46875 341.2Q311.15625 341.84064 311.15625 342.95Q311.15625 343.45 311.03125 343.8875Q310.92188 344.325 310.70312 344.6844Q310.5 345.075 310.1875 345.45Q309.89062 345.825 309.54688 346.1844Q309.0 346.77814 308.3125 347.4344Q307.64062 348.075 307.23438 348.45L311.53125 348.45L311.53125 349.45ZM318.5625 345.09064Q318.5625 347.4344 317.875 348.54376Q317.20312 349.6375 315.78125 349.6375Q314.32812 349.6375 313.65625 348.5125Q312.98438 347.3875 312.98438 345.09064Q312.98438 342.73126 313.67188 341.6375Q314.35938 340.54376 315.78125 340.54376Q317.21875 340.54376 317.89062 341.6844Q318.5625 342.8094 318.5625 345.09064ZM317.0625 347.7469Q317.23438 347.3094 317.29688 346.65314Q317.375 345.98126 317.375 345.09064Q317.375 344.1844 317.29688 343.52814Q317.23438 342.85626 317.0625 342.41876Q316.89062 341.98126 316.57812 341.7469Q316.26562 341.5125 315.78125 341.5125Q315.29688 341.5125 314.96875 341.7469Q314.65625 341.98126 314.48438 342.4344Q314.3125 342.8875 314.23438 343.575Q314.17188 344.2469 314.17188 345.09064Q314.17188 346.0125 314.21875 346.6375Q314.28125 347.2469 314.46875 347.73126Q314.64062 348.1844 314.95312 348.4344Q315.26562 348.66876 315.78125 348.66876Q316.26562 348.66876 316.57812 348.4344Q316.89062 348.2 317.0625 347.7469ZM325.07812 349.45L320.82812 349.45L320.82812 348.5594L322.40625 348.5594L322.40625 342.71564L320.82812 342.71564L320.82812 341.91876Q321.71875 341.91876 322.14062 341.66876Q322.57812 341.40314 322.625 340.7L323.53125 340.7L323.53125 348.5594L325.07812 348.5594L325.07812 349.45ZM331.375 344.3094Q331.375 343.41876 331.20312 342.85626Q331.04688 342.29376 330.76562 341.9969Q330.5 341.71564 330.23438 341.60626Q329.96875 341.4969 329.65625 341.4969Q328.9375 341.4969 328.5 342.0125Q328.07812 342.52814 328.07812 343.5125Q328.07812 344.0594 328.21875 344.41876Q328.35938 344.77814 328.6875 345.04376Q328.90625 345.21564 329.1875 345.27814Q329.46875 345.34064 329.78125 345.34064Q330.15625 345.34064 330.59375 345.21564Q331.03125 345.075 331.35938 344.85626Q331.35938 344.77814 331.35938 344.6375Q331.375 344.48126 331.375 344.3094ZM326.89062 343.5594Q326.89062 342.8875 327.10938 342.34064Q327.32812 341.77814 327.71875 341.3719Q328.07812 340.98126 328.59375 340.7625Q329.125 340.54376 329.67188 340.54376Q330.26562 340.54376 330.75 340.7469Q331.25 340.95 331.60938 341.34064Q332.0625 341.8094 332.29688 342.59064Q332.54688 343.3719 332.54688 344.5594Q332.54688 345.65314 332.29688 346.6219Q332.0625 347.59064 331.59375 348.23126Q331.09375 348.90314 330.375 349.2625Q329.67188 349.6219 328.64062 349.6219Q328.40625 349.6219 328.14062 349.59064Q327.875 349.575 327.65625 349.4969L327.65625 348.3719L327.70312 348.3719Q327.85938 348.46564 328.15625 348.54376Q328.46875 348.60626 328.79688 348.60626Q329.95312 348.60626 330.60938 347.85626Q331.26562 347.10626 331.34375 345.7Q330.875 346.0125 330.45312 346.16876Q330.03125 346.3094 329.53125 346.3094Q329.04688 346.3094 328.64062 346.2Q328.25 346.09064 327.84375 345.79376Q327.375 345.4344 327.125 344.8875Q326.89062 344.34064 326.89062 343.5594Z" fill-rule="nonzero"/><path fill="#666666" d="M467.9193 349.45L462.5287 349.45L462.5287 348.23126Q463.1068 347.66876 463.62244 347.16876Q464.13806 346.66876 464.63806 346.1219Q465.62244 345.02814 465.9818 344.3719Q466.3568 343.7 466.3568 342.9969Q466.3568 342.6375 466.2318 342.3719Q466.12244 342.09064 465.9193 341.90314Q465.7162 341.73126 465.45056 341.65314Q465.18494 341.5594 464.8568 341.5594Q464.5443 341.5594 464.2162 341.6375Q463.9037 341.71564 463.62244 341.825Q463.37244 341.9344 463.13806 342.075Q462.9193 342.21564 462.7787 342.3094L462.7162 342.3094L462.7162 341.075Q463.07556 340.8875 463.7162 340.71564Q464.37244 340.54376 464.95056 340.54376Q466.1693 340.54376 466.8568 341.2Q467.5443 341.84064 467.5443 342.95Q467.5443 343.45 467.4193 343.8875Q467.30994 344.325 467.0912 344.6844Q466.88806 345.075 466.57556 345.45Q466.2787 345.825 465.93494 346.1844Q465.38806 346.77814 464.70056 347.4344Q464.0287 348.075 463.62244 348.45L467.9193 348.45L467.9193 349.45ZM474.95056 345.09064Q474.95056 347.4344 474.26306 348.54376Q473.5912 349.6375 472.1693 349.6375Q470.7162 349.6375 470.0443 348.5125Q469.37244 347.3875 469.37244 345.09064Q469.37244 342.73126 470.05994 341.6375Q470.74744 340.54376 472.1693 340.54376Q473.6068 340.54376 474.2787 341.6844Q474.95056 342.8094 474.95056 345.09064ZM473.45056 347.7469Q473.62244 347.3094 473.68494 346.65314Q473.76306 345.98126 473.76306 345.09064Q473.76306 344.1844 473.68494 343.52814Q473.62244 342.85626 473.45056 342.41876Q473.2787 341.98126 472.9662 341.7469Q472.6537 341.5125 472.1693 341.5125Q471.68494 341.5125 471.3568 341.7469Q471.0443 341.98126 470.87244 342.4344Q470.70056 342.8875 470.62244 343.575Q470.55994 344.2469 470.55994 345.09064Q470.55994 346.0125 470.6068 346.6375Q470.6693 347.2469 470.8568 347.73126Q471.0287 348.1844 471.3412 348.4344Q471.6537 348.66876 472.1693 348.66876Q472.6537 348.66876 472.9662 348.4344Q473.2787 348.2 473.45056 347.7469ZM481.4662 349.45L477.2162 349.45L477.2162 348.5594L478.7943 348.5594L478.7943 342.71564L477.2162 342.71564L477.2162 341.91876Q478.1068 341.91876 478.5287 341.66876Q478.9662 341.40314 479.01306 340.7L479.9193 340.7L479.9193 348.5594L481.4662 348.5594L481.4662 349.45ZM487.63806 342.7625Q487.63806 342.16876 487.24744 341.77814Q486.8568 341.3875 486.1537 341.3875Q485.51306 341.3875 485.1068 341.7469Q484.70056 342.09064 484.70056 342.6844Q484.70056 343.1219 484.9037 343.41876Q485.12244 343.71564 485.5443 343.96564Q485.7162 344.0594 486.0912 344.23126Q486.4662 344.40314 486.76306 344.5125Q487.2787 344.1219 487.45056 343.71564Q487.63806 343.29376 487.63806 342.7625ZM487.80994 347.1219Q487.80994 346.59064 487.5912 346.27814Q487.38806 345.95 486.7787 345.6219Q486.57556 345.5125 486.24744 345.3875Q485.9193 345.2625 485.49744 345.09064Q485.01306 345.40314 484.74744 345.8875Q484.49744 346.35626 484.49744 346.95Q484.49744 347.7469 484.9662 348.2625Q485.45056 348.77814 486.1693 348.77814Q486.9193 348.77814 487.3568 348.34064Q487.80994 347.8875 487.80994 347.1219ZM486.1693 349.65314Q485.51306 349.65314 484.9818 349.45Q484.45056 349.2625 484.07556 348.90314Q483.70056 348.54376 483.51306 348.0594Q483.32556 347.575 483.32556 347.04376Q483.32556 346.325 483.70056 345.73126Q484.07556 345.1375 484.7943 344.79376L484.7943 344.7625Q484.1537 344.3875 483.8412 343.95Q483.5287 343.4969 483.5287 342.825Q483.5287 341.84064 484.2787 341.1844Q485.0287 340.52814 486.1693 340.52814Q487.3568 340.52814 488.07556 341.15314Q488.7943 341.77814 488.7943 342.7469Q488.7943 343.325 488.45056 343.90314Q488.1068 344.48126 487.4662 344.8094L487.4662 344.84064Q488.2162 345.2 488.6068 345.71564Q489.01306 346.21564 489.01306 347.0125Q489.01306 348.1375 488.20056 348.90314Q487.38806 349.65314 486.1693 349.65314Z" fill-rule="nonzero"/></svg>