<svg version="1.1" viewBox="0.0 0.0 606.0 375.0" fill="none" stroke="none" stroke-linecap="square" stroke-miterlimit="10" width="606" height="375" xmlns:xlink="http://www.w3.org/1999/xlink" xmlns="http://www.w3.org/2000/svg"><path fill="#ffffff" d="M0 0L606.0 0L606.0 375.0L0 375.0L0 0Z" fill-rule="nonzero"/><path stroke="#333333" stroke-width="1.0" stroke-linecap="butt" d="M54.5 335.5L587.5 335.5" fill-rule="nonzero"/><path stroke="#cccccc" stroke-width="1.0" stroke-linecap="butt" d="M54.5 258.5L587.5 258.5" fill-rule="nonzero"/><path stroke="#cccccc" stroke-width="1.0" stroke-linecap="butt" d="M54.5 180.5L587.5 180.5" fill-rule="nonzero"/><path stroke="#cccccc" stroke-width="1.0" stroke-linecap="butt" d="M54.5 103.5L587.5 103.5" fill-rule="nonzero"/><path stroke="#cccccc" stroke-width="1.0" stroke-linecap="butt" d="M54.5 26.5L587.5 26.5" fill-rule="nonzero"/><clipPath id="id_0"><path d="M54.75 26.25L587.25 26.25L587.25 335.25L54.75 335.25L54.75 26.25Z" clip-rule="nonzero"/></clipPath><path stroke="#000000" stroke-width="0.0" stroke-linecap="butt" stroke-opacity="0.0" clip-path="url(#id_0)" d="M214.0 335.0L111.0 335.0L111.0 94.0L214.0 94.0Z" fill-rule="nonzero"/><path fill="#00abbd" clip-path="url(#id_0)" d="M214.0 335.0L111.0 335.0L111.0 94.0L214.0 94.0Z" fill-rule="nonzero"/><path stroke="#000000" stroke-width="0.0" stroke-linecap="butt" stroke-opacity="0.0" clip-path="url(#id_0)" d="M373.0 335.0L270.0 335.0L270.0 73.0L373.0 73.0Z" fill-rule="nonzero"/><path fill="#00abbd" clip-path="url(#id_0)" d="M373.0 335.0L270.0 335.0L270.0 73.0L373.0 73.0Z" fill-rule="nonzero"/><path stroke="#000000" stroke-width="0.0" stroke-linecap="butt" stroke-opacity="0.0" clip-path="url(#id_0)" d="M532.0 335.0L429.0 335.0L429.0 63.0L532.0 63.0Z" fill-rule="nonzero"/><path fill="#00abbd" clip-path="url(#id_0)" d="M532.0 335.0L429.0 335.0L429.0 63.0L532.0 63.0Z" fill-rule="nonzero"/><path stroke="#000000" stroke-width="0.0" stroke-linecap="butt" stroke-opacity="0.0" clip-path="url(#id_0)" d="M214.0 94.0L111.0 94.0L111.0 51.0L214.0 51.0Z" fill-rule="nonzero"/><path fill="#da521f" clip-path="url(#id_0)" d="M214.0 94.0L111.0 94.0L111.0 51.0L214.0 51.0Z" fill-rule="nonzero"/><path stroke="#000000" stroke-width="0.0" stroke-linecap="butt" stroke-opacity="0.0" clip-path="url(#id_0)" d="M373.0 73.0L270.0 73.0L270.0 32.0L373.0 32.0Z" fill-rule="nonzero"/><path fill="#da521f" clip-path="url(#id_0)" d="M373.0 73.0L270.0 73.0L270.0 32.0L373.0 32.0Z" fill-rule="nonzero"/><path stroke="#000000" stroke-width="0.0" stroke-linecap="butt" stroke-opacity="0.0" clip-path="url(#id_0)" d="M532.0 63.0L429.0 63.0L429.0 36.0L532.0 36.0Z" fill-rule="nonzero"/><path fill="#da521f" clip-path="url(#id_0)" d="M532.0 63.0L429.0 63.0L429.0 36.0L532.0 36.0Z" fill-rule="nonzero"/><path stroke="#000000" stroke-width="0.0" stroke-linecap="butt" stroke-opacity="0.0" clip-path="url(#id_0)" d="M214.0 51.0L111.0 51.0L111.0 28.0C111.0 26.89543 111.89543 26.0 113.0 26.0L212.0 26.0C213.10457 26.0 214.0 26.89543 214.0 28.0Z" fill-rule="nonzero"/><path fill="#999999" clip-path="url(#id_0)" d="M214.0 51.0L111.0 51.0L111.0 28.0C111.0 26.89543 111.89543 26.0 113.0 26.0L212.0 26.0C213.10457 26.0 214.0 26.89543 214.0 28.0Z" fill-rule="nonzero"/><path stroke="#000000" stroke-width="0.0" stroke-linecap="butt" stroke-opacity="0.0" clip-path="url(#id_0)" d="M373.0 32.0L270.0 32.0L270.0 28.0C270.0 26.89543 270.89542 26.0 272.0 26.0L371.0 26.0C372.10458 26.0 373.0 26.89543 373.0 28.0Z" fill-rule="nonzero"/><path fill="#999999" clip-path="url(#id_0)" d="M373.0 32.0L270.0 32.0L270.0 28.0C270.0 26.89543 270.89542 26.0 272.0 26.0L371.0 26.0C372.10458 26.0 373.0 26.89543 373.0 28.0Z" fill-rule="nonzero"/><path stroke="#000000" stroke-width="0.0" stroke-linecap="butt" stroke-opacity="0.0" clip-path="url(#id_0)" d="M532.0 36.0L429.0 36.0L429.0 28.0C429.0 26.89543 429.89542 26.0 431.0 26.0L530.0 26.0C531.10455 26.0 532.0 26.89543 532.0 28.0Z" fill-rule="nonzero"/><path fill="#999999" clip-path="url(#id_0)" d="M532.0 36.0L429.0 36.0L429.0 28.0C429.0 26.89543 429.89542 26.0 431.0 26.0L530.0 26.0C531.10455 26.0 532.0 26.89543 532.0 28.0Z" fill-rule="nonzero"/><path fill="#757575" d="M38.8125 336.10938Q38.8125 338.01562 38.15625 338.95312Q37.515625 339.875 36.125 339.875Q34.765625 339.875 34.109375 338.96875Q33.453125 338.0625 33.421875 336.25L33.421875 334.8125Q33.421875 332.92188 34.0625 332.01562Q34.71875 331.09375 36.109375 331.09375Q37.484375 331.09375 38.140625 331.98438Q38.796875 332.85938 38.8125 334.70312L38.8125 336.10938ZM37.71875 334.625Q37.71875 333.25 37.328125 332.625Q36.953125 331.98438 36.109375 331.98438Q35.28125 331.98438 34.890625 332.625Q34.515625 333.25 34.515625 334.54688L34.515625 336.28125Q34.515625 337.65625 34.90625 338.32812Q35.3125 338.98438 36.125 338.98438Q36.921875 338.98438 37.3125 338.35938Q37.703125 337.73438 37.71875 336.40625L37.71875 334.625ZM40.359375 332.85938Q40.359375 332.09375 40.84375 331.59375Q41.34375 331.09375 42.109375 331.09375Q42.890625 331.09375 43.375 331.59375Q43.859375 332.09375 43.859375 332.89062L43.859375 333.3125Q43.859375 334.07812 43.359375 334.57812Q42.875 335.0625 42.125 335.0625Q41.359375 335.0625 40.859375 334.57812Q40.359375 334.07812 40.359375 333.26562L40.359375 332.85938ZM41.171875 333.3125Q41.171875 333.76562 41.421875 334.0625Q41.6875 334.35938 42.125 334.35938Q42.546875 334.35938 42.796875 334.07812Q43.046875 333.78125 43.046875 333.28125L43.046875 332.85938Q43.046875 332.40625 42.796875 332.10938Q42.546875 331.79688 42.109375 331.79688Q41.671875 331.79688 41.421875 332.10938Q41.171875 332.40625 41.171875 332.875L41.171875 333.3125ZM44.515625 337.65625Q44.515625 336.89062 45.0 336.40625Q45.5 335.90625 46.265625 335.90625Q47.03125 335.90625 47.515625 336.40625Q48.015625 336.89062 48.015625 337.70312L48.015625 338.10938Q48.015625 338.875 47.53125 339.375Q47.046875 339.875 46.28125 339.875Q45.515625 339.875 45.015625 339.39062Q44.515625 338.89062 44.515625 338.07812L44.515625 337.65625ZM45.328125 338.10938Q45.328125 338.57812 45.578125 338.875Q45.84375 339.17188 46.28125 339.17188Q46.703125 339.17188 46.953125 338.89062Q47.203125 338.59375 47.203125 338.09375L47.203125 337.65625Q47.203125 337.1875 46.9375 336.90625Q46.6875 336.60938 46.265625 336.60938Q45.84375 336.60938 45.578125 336.90625Q45.328125 337.1875 45.328125 337.6875L45.328125 338.10938ZM42.375 339.10938L41.75 338.71875L45.921875 332.04688L46.53125 332.4375L42.375 339.10938Z" fill-rule="nonzero"/><path fill="#757575" d="M32.046875 262.5L26.453125 262.5L26.453125 261.71875L29.40625 258.4375Q30.0625 257.6875 30.3125 257.23438Q30.5625 256.76562 30.5625 256.26562Q30.5625 255.59375 30.15625 255.17188Q29.765625 254.73438 29.078125 254.73438Q28.28125 254.73438 27.828125 255.20312Q27.375 255.65625 27.375 256.48438L26.296875 256.48438Q26.296875 255.29688 27.046875 254.57812Q27.8125 253.84375 29.078125 253.84375Q30.28125 253.84375 30.96875 254.46875Q31.65625 255.09375 31.65625 256.14062Q31.65625 257.39062 30.046875 259.14062L27.765625 261.60938L32.046875 261.60938L32.046875 262.5ZM33.953125 258.21875L34.390625 253.96875L38.765625 253.96875L38.765625 254.96875L35.3125 254.96875L35.046875 257.29688Q35.6875 256.92188 36.484375 256.92188Q37.640625 256.92188 38.328125 257.70312Q39.015625 258.46875 39.015625 259.78125Q39.015625 261.09375 38.296875 261.85938Q37.59375 262.625 36.3125 262.625Q35.1875 262.625 34.46875 262.0Q33.75 261.35938 33.65625 260.25L34.671875 260.25Q34.78125 260.98438 35.203125 261.35938Q35.625 261.73438 36.3125 261.73438Q37.0625 261.73438 37.5 261.21875Q37.9375 260.70312 37.9375 259.79688Q37.9375 258.9375 37.46875 258.42188Q37.0 257.90625 36.21875 257.90625Q35.515625 257.90625 35.109375 258.20312L34.828125 258.4375L33.953125 258.21875ZM40.359375 255.60938Q40.359375 254.84375 40.84375 254.34375Q41.34375 253.84375 42.109375 253.84375Q42.890625 253.84375 43.375 254.34375Q43.859375 254.84375 43.859375 255.64062L43.859375 256.0625Q43.859375 256.82812 43.359375 257.32812Q42.875 257.8125 42.125 257.8125Q41.359375 257.8125 40.859375 257.32812Q40.359375 256.82812 40.359375 256.01562L40.359375 255.60938ZM41.171875 256.0625Q41.171875 256.51562 41.421875 256.8125Q41.6875 257.10938 42.125 257.10938Q42.546875 257.10938 42.796875 256.82812Q43.046875 256.53125 43.046875 256.03125L43.046875 255.60938Q43.046875 255.15625 42.796875 254.85938Q42.546875 254.54688 42.109375 254.54688Q41.671875 254.54688 41.421875 254.85938Q41.171875 255.15625 41.171875 255.625L41.171875 256.0625ZM44.515625 260.40625Q44.515625 259.64062 45.0 259.15625Q45.5 258.65625 46.265625 258.65625Q47.03125 258.65625 47.515625 259.15625Q48.015625 259.64062 48.015625 260.45312L48.015625 260.85938Q48.015625 261.625 47.53125 262.125Q47.046875 262.625 46.28125 262.625Q45.515625 262.625 45.015625 262.14062Q44.515625 261.64062 44.515625 260.82812L44.515625 260.40625ZM45.328125 260.85938Q45.328125 261.32812 45.578125 261.625Q45.84375 261.92188 46.28125 261.92188Q46.703125 261.92188 46.953125 261.64062Q47.203125 261.34375 47.203125 260.84375L47.203125 260.40625Q47.203125 259.9375 46.9375 259.65625Q46.6875 259.35938 46.265625 259.35938Q45.84375 259.35938 45.578125 259.65625Q45.328125 259.9375 45.328125 260.4375L45.328125 260.85938ZM42.375 261.85938L41.75 261.46875L45.921875 254.79688L46.53125 255.1875L42.375 261.85938Z" fill-rule="nonzero"/><path fill="#757575" d="M26.953125 180.96875L27.390625 176.71875L31.765625 176.71875L31.765625 177.71875L28.3125 177.71875L28.046875 180.04688Q28.6875 179.67188 29.484375 179.67188Q30.640625 179.67188 31.328125 180.45312Q32.015625 181.21875 32.015625 182.53125Q32.015625 183.84375 31.296875 184.60938Q30.59375 185.375 29.3125 185.375Q28.1875 185.375 27.46875 184.75Q26.75 184.10938 26.65625 183.0L27.671875 183.0Q27.78125 183.73438 28.203125 184.10938Q28.625 184.48438 29.3125 184.48438Q30.0625 184.48438 30.5 183.96875Q30.9375 183.45312 30.9375 182.54688Q30.9375 181.6875 30.46875 181.17188Q30.0 180.65625 29.21875 180.65625Q28.515625 180.65625 28.109375 180.95312L27.828125 181.1875L26.953125 180.96875ZM38.8125 181.60938Q38.8125 183.51562 38.15625 184.45312Q37.515625 185.375 36.125 185.375Q34.765625 185.375 34.109375 184.46875Q33.453125 183.5625 33.421875 181.75L33.421875 180.3125Q33.421875 178.42188 34.0625 177.51562Q34.71875 176.59375 36.109375 176.59375Q37.484375 176.59375 38.140625 177.48438Q38.796875 178.35938 38.8125 180.20312L38.8125 181.60938ZM37.71875 180.125Q37.71875 178.75 37.328125 178.125Q36.953125 177.48438 36.109375 177.48438Q35.28125 177.48438 34.890625 178.125Q34.515625 178.75 34.515625 180.04688L34.515625 181.78125Q34.515625 183.15625 34.90625 183.82812Q35.3125 184.48438 36.125 184.48438Q36.921875 184.48438 37.3125 183.85938Q37.703125 183.23438 37.71875 181.90625L37.71875 180.125ZM40.359375 178.35938Q40.359375 177.59375 40.84375 177.09375Q41.34375 176.59375 42.109375 176.59375Q42.890625 176.59375 43.375 177.09375Q43.859375 177.59375 43.859375 178.39062L43.859375 178.8125Q43.859375 179.57812 43.359375 180.07812Q42.875 180.5625 42.125 180.5625Q41.359375 180.5625 40.859375 180.07812Q40.359375 179.57812 40.359375 178.76562L40.359375 178.35938ZM41.171875 178.8125Q41.171875 179.26562 41.421875 179.5625Q41.6875 179.85938 42.125 179.85938Q42.546875 179.85938 42.796875 179.57812Q43.046875 179.28125 43.046875 178.78125L43.046875 178.35938Q43.046875 177.90625 42.796875 177.60938Q42.546875 177.29688 42.109375 177.29688Q41.671875 177.29688 41.421875 177.60938Q41.171875 177.90625 41.171875 178.375L41.171875 178.8125ZM44.515625 183.15625Q44.515625 182.39062 45.0 181.90625Q45.5 181.40625 46.265625 181.40625Q47.03125 181.40625 47.515625 181.90625Q48.015625 182.39062 48.015625 183.20312L48.015625 183.60938Q48.015625 184.375 47.53125 184.875Q47.046875 185.375 46.28125 185.375Q45.515625 185.375 45.015625 184.89062Q44.515625 184.39062 44.515625 183.57812L44.515625 183.15625ZM45.328125 183.60938Q45.328125 184.07812 45.578125 184.375Q45.84375 184.67188 46.28125 184.67188Q46.703125 184.67188 46.953125 184.39062Q47.203125 184.09375 47.203125 183.59375L47.203125 183.15625Q47.203125 182.6875 46.9375 182.40625Q46.6875 182.10938 46.265625 182.10938Q45.84375 182.10938 45.578125 182.40625Q45.328125 182.6875 45.328125 183.1875L45.328125 183.60938ZM42.375 184.60938L41.75 184.21875L45.921875 177.54688L46.53125 177.9375L42.375 184.60938Z" fill-rule="nonzero"/><path fill="#757575" d="M31.96875 100.078125L28.4375 108.0L27.296875 108.0L30.8125 100.359375L26.203125 100.359375L26.203125 99.46875L31.96875 99.46875L31.96875 100.078125ZM33.953125 103.71875L34.390625 99.46875L38.765625 99.46875L38.765625 100.46875L35.3125 100.46875L35.046875 102.796875Q35.6875 102.421875 36.484375 102.421875Q37.640625 102.421875 38.328125 103.203125Q39.015625 103.96875 39.015625 105.28125Q39.015625 106.59375 38.296875 107.359375Q37.59375 108.125 36.3125 108.125Q35.1875 108.125 34.46875 107.5Q33.75 106.859375 33.65625 105.75L34.671875 105.75Q34.78125 106.484375 35.203125 106.859375Q35.625 107.234375 36.3125 107.234375Q37.0625 107.234375 37.5 106.71875Q37.9375 106.203125 37.9375 105.296875Q37.9375 104.4375 37.46875 103.921875Q37.0 103.40625 36.21875 103.40625Q35.515625 103.40625 35.109375 103.703125L34.828125 103.9375L33.953125 103.71875ZM40.359375 101.109375Q40.359375 100.34375 40.84375 99.84375Q41.34375 99.34375 42.109375 99.34375Q42.890625 99.34375 43.375 99.84375Q43.859375 100.34375 43.859375 101.140625L43.859375 101.5625Q43.859375 102.328125 43.359375 102.828125Q42.875 103.3125 42.125 103.3125Q41.359375 103.3125 40.859375 102.828125Q40.359375 102.328125 40.359375 101.515625L40.359375 101.109375ZM41.171875 101.5625Q41.171875 102.015625 41.421875 102.3125Q41.6875 102.609375 42.125 102.609375Q42.546875 102.609375 42.796875 102.328125Q43.046875 102.03125 43.046875 101.53125L43.046875 101.109375Q43.046875 100.65625 42.796875 100.359375Q42.546875 100.046875 42.109375 100.046875Q41.671875 100.046875 41.421875 100.359375Q41.171875 100.65625 41.171875 101.125L41.171875 101.5625ZM44.515625 105.90625Q44.515625 105.140625 45.0 104.65625Q45.5 104.15625 46.265625 104.15625Q47.03125 104.15625 47.515625 104.65625Q48.015625 105.140625 48.015625 105.953125L48.015625 106.359375Q48.015625 107.125 47.53125 107.625Q47.046875 108.125 46.28125 108.125Q45.515625 108.125 45.015625 107.640625Q44.515625 107.140625 44.515625 106.328125L44.515625 105.90625ZM45.328125 106.359375Q45.328125 106.828125 45.578125 107.125Q45.84375 107.421875 46.28125 107.421875Q46.703125 107.421875 46.953125 107.140625Q47.203125 106.84375 47.203125 106.34375L47.203125 105.90625Q47.203125 105.4375 46.9375 105.15625Q46.6875 104.859375 46.265625 104.859375Q45.84375 104.859375 45.578125 105.15625Q45.328125 105.4375 45.328125 105.9375L45.328125 106.359375ZM42.375 107.359375L41.75 106.96875L45.921875 100.296875L46.53125 100.6875L42.375 107.359375Z" fill-rule="nonzero"/><path fill="#757575" d="M23.015625 30.75L21.9375 30.75L21.9375 23.53125L19.75 24.328125L19.75 23.34375L22.859375 22.171875L23.015625 22.171875L23.015625 30.75ZM31.8125 27.109375Q31.8125 29.015625 31.15625 29.953125Q30.515625 30.875 29.125 30.875Q27.765625 30.875 27.109375 29.96875Q26.453125 29.0625 26.421875 27.25L26.421875 25.8125Q26.421875 23.921875 27.0625 23.015625Q27.71875 22.09375 29.109375 22.09375Q30.484375 22.09375 31.140625 22.984375Q31.796875 23.859375 31.8125 25.703125L31.8125 27.109375ZM30.71875 25.625Q30.71875 24.25 30.328125 23.625Q29.953125 22.984375 29.109375 22.984375Q28.28125 22.984375 27.890625 23.625Q27.515625 24.25 27.515625 25.546875L27.515625 27.28125Q27.515625 28.65625 27.90625 29.328125Q28.3125 29.984375 29.125 29.984375Q29.921875 29.984375 30.3125 29.359375Q30.703125 28.734375 30.71875 27.40625L30.71875 25.625ZM38.8125 27.109375Q38.8125 29.015625 38.15625 29.953125Q37.515625 30.875 36.125 30.875Q34.765625 30.875 34.109375 29.96875Q33.453125 29.0625 33.421875 27.25L33.421875 25.8125Q33.421875 23.921875 34.0625 23.015625Q34.71875 22.09375 36.109375 22.09375Q37.484375 22.09375 38.140625 22.984375Q38.796875 23.859375 38.8125 25.703125L38.8125 27.109375ZM37.71875 25.625Q37.71875 24.25 37.328125 23.625Q36.953125 22.984375 36.109375 22.984375Q35.28125 22.984375 34.890625 23.625Q34.515625 24.25 34.515625 25.546875L34.515625 27.28125Q34.515625 28.65625 34.90625 29.328125Q35.3125 29.984375 36.125 29.984375Q36.921875 29.984375 37.3125 29.359375Q37.703125 28.734375 37.71875 27.40625L37.71875 25.625ZM40.359375 23.859375Q40.359375 23.09375 40.84375 22.59375Q41.34375 22.09375 42.109375 22.09375Q42.890625 22.09375 43.375 22.59375Q43.859375 23.09375 43.859375 23.890625L43.859375 24.3125Q43.859375 25.078125 43.359375 25.578125Q42.875 26.0625 42.125 26.0625Q41.359375 26.0625 40.859375 25.578125Q40.359375 25.078125 40.359375 24.265625L40.359375 23.859375ZM41.171875 24.3125Q41.171875 24.765625 41.421875 25.0625Q41.6875 25.359375 42.125 25.359375Q42.546875 25.359375 42.796875 25.078125Q43.046875 24.78125 43.046875 24.28125L43.046875 23.859375Q43.046875 23.40625 42.796875 23.109375Q42.546875 22.796875 42.109375 22.796875Q41.671875 22.796875 41.421875 23.109375Q41.171875 23.40625 41.171875 23.875L41.171875 24.3125ZM44.515625 28.65625Q44.515625 27.890625 45.0 27.40625Q45.5 26.90625 46.265625 26.90625Q47.03125 26.90625 47.515625 27.40625Q48.015625 27.890625 48.015625 28.703125L48.015625 29.109375Q48.015625 29.875 47.53125 30.375Q47.046875 30.875 46.28125 30.875Q45.515625 30.875 45.015625 30.390625Q44.515625 29.890625 44.515625 29.078125L44.515625 28.65625ZM45.328125 29.109375Q45.328125 29.578125 45.578125 29.875Q45.84375 30.171875 46.28125 30.171875Q46.703125 30.171875 46.953125 29.890625Q47.203125 29.59375 47.203125 29.09375L47.203125 28.65625Q47.203125 28.1875 46.9375 27.90625Q46.6875 27.609375 46.265625 27.609375Q45.84375 27.609375 45.578125 27.90625Q45.328125 28.1875 45.328125 28.6875L45.328125 29.109375ZM42.375 30.109375L41.75 29.71875L45.921875 23.046875L46.53125 23.4375L42.375 30.109375Z" fill-rule="nonzero"/><path fill="#757575" d="M154.34164 353.25L148.7479 353.25L148.7479 352.46875L151.70102 349.1875Q152.35727 348.4375 152.60727 347.98438Q152.85727 347.51562 152.85727 347.01562Q152.85727 346.34375 152.45102 345.92188Q152.0604 345.48438 151.3729 345.48438Q150.57602 345.48438 150.1229 345.95312Q149.66977 346.40625 149.66977 347.23438L148.59164 347.23438Q148.59164 346.04688 149.34164 345.32812Q150.10727 344.59375 151.3729 344.59375Q152.57602 344.59375 153.26352 345.21875Q153.95102 345.84375 153.95102 346.89062Q153.95102 348.14062 152.34164 349.89062L150.0604 352.35938L154.34164 352.35938L154.34164 353.25ZM161.10727 349.60938Q161.10727 351.51562 160.45102 352.45312Q159.8104 353.375 158.41977 353.375Q157.0604 353.375 156.40414 352.46875Q155.7479 351.5625 155.71664 349.75L155.71664 348.3125Q155.71664 346.42188 156.35727 345.51562Q157.01352 344.59375 158.40414 344.59375Q159.77914 344.59375 160.4354 345.48438Q161.09164 346.35938 161.10727 348.20312L161.10727 349.60938ZM160.01352 348.125Q160.01352 346.75 159.6229 346.125Q159.2479 345.48438 158.40414 345.48438Q157.57602 345.48438 157.1854 346.125Q156.8104 346.75 156.8104 348.04688L156.8104 349.78125Q156.8104 351.15625 157.20102 351.82812Q157.60727 352.48438 158.41977 352.48438Q159.21664 352.48438 159.60727 351.85938Q159.9979 351.23438 160.01352 349.90625L160.01352 348.125ZM166.3104 353.25L165.23227 353.25L165.23227 346.03125L163.04477 346.82812L163.04477 345.84375L166.15414 344.67188L166.3104 344.67188L166.3104 353.25ZM174.9354 346.9375Q174.9354 347.57812 174.59164 348.07812Q174.2479 348.57812 173.6854 348.85938Q174.34164 349.14062 174.73227 349.70312Q175.1229 350.25 175.1229 350.95312Q175.1229 352.04688 174.3729 352.71875Q173.63852 353.375 172.41977 353.375Q171.1854 353.375 170.4354 352.71875Q169.70102 352.04688 169.70102 350.95312Q169.70102 350.25 170.07602 349.70312Q170.45102 349.14062 171.1229 348.85938Q170.5604 348.57812 170.23227 348.07812Q169.90414 347.57812 169.90414 346.9375Q169.90414 345.85938 170.59164 345.23438Q171.27914 344.59375 172.41977 344.59375Q173.54477 344.59375 174.23227 345.23438Q174.9354 345.85938 174.9354 346.9375ZM174.04477 350.92188Q174.04477 350.20312 173.59164 349.76562Q173.13852 349.3125 172.40414 349.3125Q171.66977 349.3125 171.21664 349.76562Q170.77914 350.20312 170.77914 350.9375Q170.77914 351.65625 171.21664 352.07812Q171.65414 352.48438 172.41977 352.48438Q173.16977 352.48438 173.60727 352.0625Q174.04477 351.64062 174.04477 350.92188ZM172.41977 345.48438Q171.77914 345.48438 171.3729 345.89062Q170.98227 346.28125 170.98227 346.96875Q170.98227 347.60938 171.3729 348.01562Q171.76352 348.42188 172.40414 348.42188Q173.0604 348.42188 173.45102 348.01562Q173.84164 347.60938 173.84164 346.96875Q173.84164 346.3125 173.4354 345.90625Q173.02914 345.48438 172.41977 345.48438Z" fill-rule="nonzero"/><path fill="#757575" d="M313.29688 353.25L307.70312 353.25L307.70312 352.46875L310.65625 349.1875Q311.3125 348.4375 311.5625 347.98438Q311.8125 347.51562 311.8125 347.01562Q311.8125 346.34375 311.40625 345.92188Q311.01562 345.48438 310.32812 345.48438Q309.53125 345.48438 309.07812 345.95312Q308.625 346.40625 308.625 347.23438L307.54688 347.23438Q307.54688 346.04688 308.29688 345.32812Q309.0625 344.59375 310.32812 344.59375Q311.53125 344.59375 312.21875 345.21875Q312.90625 345.84375 312.90625 346.89062Q312.90625 348.14062 311.29688 349.89062L309.01562 352.35938L313.29688 352.35938L313.29688 353.25ZM320.0625 349.60938Q320.0625 351.51562 319.40625 352.45312Q318.76562 353.375 317.375 353.375Q316.01562 353.375 315.35938 352.46875Q314.70312 351.5625 314.67188 349.75L314.67188 348.3125Q314.67188 346.42188 315.3125 345.51562Q315.96875 344.59375 317.35938 344.59375Q318.73438 344.59375 319.39062 345.48438Q320.04688 346.35938 320.0625 348.20312L320.0625 349.60938ZM318.96875 348.125Q318.96875 346.75 318.57812 346.125Q318.20312 345.48438 317.35938 345.48438Q316.53125 345.48438 316.14062 346.125Q315.76562 346.75 315.76562 348.04688L315.76562 349.78125Q315.76562 351.15625 316.15625 351.82812Q316.5625 352.48438 317.375 352.48438Q318.17188 352.48438 318.5625 351.85938Q318.95312 351.23438 318.96875 349.90625L318.96875 348.125ZM325.26562 353.25L324.1875 353.25L324.1875 346.03125L322.0 346.82812L322.0 345.84375L325.10938 344.67188L325.26562 344.67188L325.26562 353.25ZM334.21875 345.32812L330.6875 353.25L329.54688 353.25L333.0625 345.60938L328.45312 345.60938L328.45312 344.71875L334.21875 344.71875L334.21875 345.32812Z" fill-rule="nonzero"/><path fill="#757575" d="M472.2521 353.25L466.65836 353.25L466.65836 352.46875L469.61148 349.1875Q470.26773 348.4375 470.51773 347.98438Q470.76773 347.51562 470.76773 347.01562Q470.76773 346.34375 470.36148 345.92188Q469.97086 345.48438 469.28336 345.48438Q468.48648 345.48438 468.03336 345.95312Q467.58023 346.40625 467.58023 347.23438L466.5021 347.23438Q466.5021 346.04688 467.2521 345.32812Q468.01773 344.59375 469.28336 344.59375Q470.48648 344.59375 471.17398 345.21875Q471.86148 345.84375 471.86148 346.89062Q471.86148 348.14062 470.2521 349.89062L467.97086 352.35938L472.2521 352.35938L472.2521 353.25ZM479.01773 349.60938Q479.01773 351.51562 478.36148 352.45312Q477.72086 353.375 476.33023 353.375Q474.97086 353.375 474.3146 352.46875Q473.65836 351.5625 473.6271 349.75L473.6271 348.3125Q473.6271 346.42188 474.26773 345.51562Q474.92398 344.59375 476.3146 344.59375Q477.6896 344.59375 478.34586 345.48438Q479.0021 346.35938 479.01773 348.20312L479.01773 349.60938ZM477.92398 348.125Q477.92398 346.75 477.53336 346.125Q477.15836 345.48438 476.3146 345.48438Q475.48648 345.48438 475.09586 346.125Q474.72086 346.75 474.72086 348.04688L474.72086 349.78125Q474.72086 351.15625 475.11148 351.82812Q475.51773 352.48438 476.33023 352.48438Q477.1271 352.48438 477.51773 351.85938Q477.90836 351.23438 477.92398 349.90625L477.92398 348.125ZM484.22086 353.25L483.14273 353.25L483.14273 346.03125L480.95523 346.82812L480.95523 345.84375L484.0646 344.67188L484.22086 344.67188L484.22086 353.25ZM491.92398 344.71875L491.92398 345.625L491.72086 345.625Q490.45523 345.65625 489.70523 346.39062Q488.95523 347.10938 488.83023 348.42188Q489.51773 347.65625 490.67398 347.65625Q491.78336 347.65625 492.45523 348.4375Q493.1271 349.21875 493.1271 350.46875Q493.1271 351.78125 492.40836 352.57812Q491.6896 353.375 490.47086 353.375Q489.2521 353.375 488.48648 352.4375Q487.73648 351.48438 487.73648 350.0L487.73648 349.59375Q487.73648 347.23438 488.73648 345.98438Q489.73648 344.73438 491.72086 344.71875L491.92398 344.71875ZM490.5021 348.5625Q489.9396 348.5625 489.47086 348.89062Q489.0021 349.21875 488.8146 349.73438L488.8146 350.125Q488.8146 351.1875 489.28336 351.82812Q489.76773 352.46875 490.47086 352.46875Q491.20523 352.46875 491.6271 351.9375Q492.04898 351.39062 492.04898 350.51562Q492.04898 349.64062 491.6271 349.10938Q491.20523 348.5625 490.5021 348.5625Z" fill-rule="nonzero"/></svg>